<?xml version="1.0" encoding="UTF-8"?>
<svg version="1.1" xmlns="http://www.w3.org/2000/svg" width="386" height="295">
<path d="M0 0 C39.23680392 -0.11456288 78.47358595 -0.20260846 117.71052385 -0.25532665 C122.34778766 -0.26157983 126.98505114 -0.26805147 131.62231445 -0.2746582 C132.54547038 -0.27596976 133.4686263 -0.27728131 134.41975664 -0.2786326 C149.34735062 -0.30036104 164.27484786 -0.33976839 179.20238454 -0.38576398 C194.53106915 -0.43260003 209.85970325 -0.46031048 225.18845648 -0.47044247 C234.63937012 -0.47728684 244.09001026 -0.49886672 253.54083966 -0.53958233 C260.03062805 -0.56610905 266.52027602 -0.57397864 273.01011462 -0.56750689 C276.74877715 -0.56431934 280.48696336 -0.56904028 284.22554016 -0.59602737 C318.04178217 -0.82772375 318.04178217 -0.82772375 330.1875 8.8125 C336.48231736 15.10731736 338.80056762 21.52564656 339.12304783 30.3776226 C339.12212604 31.61835596 339.12120424 32.85908932 339.12025452 34.13742065 C339.12153615 35.180291 339.12153615 35.180291 339.12284368 36.24422944 C339.12448361 38.56112104 339.11900159 40.87793935 339.11352539 43.19482422 C339.11324317 44.86071267 339.11340193 46.52660125 339.1139679 48.19248962 C339.11425451 52.7064641 339.10837962 57.22041195 339.10139394 61.73438025 C339.09513791 66.45492766 339.09455482 71.17547569 339.09336853 75.89602661 C339.09026185 84.83128123 339.0820574 93.76652359 339.07201904 102.70177281 C339.06083731 112.87584004 339.05534226 123.04990786 339.05032361 133.22397971 C339.03987424 154.14932664 339.02228763 175.07466255 339 196 C338.01 196.33 337.02 196.66 336 197 C336.99 197.66 337.98 198.32 339 199 C339.38095093 201.27709961 339.38095093 201.27709961 339.38818359 204.15234375 C339.39764008 205.22685791 339.40709656 206.30137207 339.4168396 207.40844727 C339.40773056 209.15532837 339.40773056 209.15532837 339.3984375 210.9375 C339.40130768 212.12851318 339.40417786 213.31952637 339.40713501 214.54663086 C339.40917946 217.06852696 339.40362317 219.59043878 339.39111328 222.11230469 C339.37506597 225.98408286 339.39095019 229.854817 339.41015625 233.7265625 C339.40817389 236.17187732 339.40433036 238.61719148 339.3984375 241.0625 C339.40451019 242.2270874 339.41058289 243.3916748 339.4168396 244.59155273 C339.40738312 245.66606689 339.39792664 246.74058105 339.38818359 247.84765625 C339.38579681 248.79648682 339.38341003 249.74531738 339.38095093 250.72290039 C339.25523712 251.47434326 339.12952332 252.22578613 339 253 C335.59825068 255.26783288 334.42910633 255.25104696 330.43865204 255.25447559 C329.27455826 255.26030779 328.11046449 255.26613998 326.91109514 255.27214891 C325.62619424 255.26836958 324.34129334 255.26459026 323.01745605 255.26069641 C321.64344433 255.26371532 320.26943428 255.26760348 318.89542723 255.27228898 C315.11124425 255.28261126 311.32715556 255.28037647 307.5429647 255.27610838 C303.46520183 255.27364883 299.38746212 255.28264566 295.30970764 255.29014587 C287.31802712 255.30291601 279.32638017 255.30468372 271.33469117 255.30234561 C264.84164882 255.30056502 258.34861669 255.30230651 251.85557556 255.30657005 C250.93265291 255.30716524 250.00973025 255.30776043 249.05884025 255.30837366 C247.18414104 255.30958536 245.30944183 255.3107995 243.43474263 255.31201603 C225.84157264 255.3229003 208.2484218 255.32072477 190.65525073 255.31463119 C174.54609335 255.30946013 158.43699641 255.32072087 142.327851 255.33972941 C125.80130444 255.35908155 109.27478652 255.3673685 92.74822855 255.36360615 C83.46404437 255.36169025 74.17991166 255.36421944 64.89573669 255.37832069 C56.99293846 255.39020203 49.09022337 255.39167599 41.18742406 255.37953053 C37.15264658 255.37361914 33.11802142 255.37260433 29.08325386 255.38453293 C25.39337518 255.39531546 21.70377738 255.39238045 18.01391226 255.37827124 C16.0389043 255.37433415 14.06388422 255.38523335 12.08890486 255.39656812 C10.92481108 255.38936158 9.76071731 255.38215503 8.56134796 255.37473011 C7.04813359 255.37481263 7.04813359 255.37481263 5.50434923 255.37489682 C3 255 3 255 1.17706633 253.62082738 C-0.46824649 251.35522178 -0.3940174 249.73414714 -0.41992188 246.94946289 C-0.43583374 245.92152115 -0.45174561 244.89357941 -0.46813965 243.83448792 C-0.46834106 242.72508347 -0.46854248 241.61567902 -0.46875 240.47265625 C-0.47636353 239.33219345 -0.48397705 238.19173065 -0.49182129 237.01670837 C-0.50263314 234.60336498 -0.50547102 232.18997475 -0.50097656 229.77661133 C-0.50000463 226.0800995 -0.54160956 222.38566488 -0.5859375 218.68945312 C-0.59114453 216.34635851 -0.59383269 214.00325665 -0.59375 211.66015625 C-0.61014526 210.55277603 -0.62654053 209.44539581 -0.64343262 208.30445862 C-0.57421739 200.63501482 -0.57421739 200.63501482 2.40039062 197.34545898 C3.25826172 196.90145752 4.11613281 196.45745605 5 196 C6.0828125 195.4121875 6.0828125 195.4121875 7.1875 194.8125 C11.39131882 193.59806345 15.64765881 193.32114362 20 193 C19.34773438 192.59910156 18.69546875 192.19820312 18.0234375 191.78515625 C8.18659769 185.38685779 3.55928724 178.37699367 1 167 C0.48366985 162.38605535 0.39145006 157.77494039 0.31640625 153.13671875 C0.28306657 151.6525574 0.24949063 150.16840134 0.2157135 148.68424988 C-0.31204351 122.69462481 -0.1109998 96.68248437 -0.07202947 70.68861949 C-0.06063549 62.96130474 -0.05529902 55.23398885 -0.05032361 47.50666773 C-0.03999925 31.6711021 -0.02252535 15.83555329 0 0 Z " fill="#111111" transform="translate(22,19)"/>
<path d="M0 0 C15.51 0 31.02 0 47 0 C45.68 0.66 44.36 1.32 43 2 C43.98675122 2.00496522 43.98675122 2.00496522 44.99343681 2.01003075 C60.98362467 2.09117273 76.97370643 2.18323597 92.96375847 2.28752708 C100.69635912 2.33769634 108.42894895 2.38413864 116.16162109 2.421875 C122.89967382 2.45476688 129.63764354 2.49458235 136.37560475 2.54279006 C139.94488692 2.56808312 143.51411383 2.58985595 147.08346176 2.60334396 C151.06339108 2.61851301 155.04311792 2.64913639 159.02294922 2.68115234 C160.80750519 2.68439262 160.80750519 2.68439262 162.62811279 2.68769836 C163.70787384 2.69886185 164.78763489 2.71002533 165.90011597 2.7215271 C166.8421884 2.72705786 167.78426083 2.73258862 168.75488091 2.73828697 C171 3 171 3 173 5 C173.29866028 7.15647888 173.29866028 7.15647888 173.36645508 9.86108398 C173.41078423 11.3779203 173.41078423 11.3779203 173.45600891 12.92539978 C173.48745247 14.5691433 173.48745247 14.5691433 173.51953125 16.24609375 C173.54601242 17.36814713 173.57249359 18.4902005 173.59977722 19.64625549 C173.6525268 22.02260881 173.70009481 24.39908188 173.74291992 26.77563477 C173.8121571 30.4194539 173.90807485 34.06192706 174.00585938 37.70507812 C174.0537128 40.01038342 174.09998945 42.31572209 174.14453125 44.62109375 C174.19115654 46.26180092 174.19115654 46.26180092 174.23872375 47.93565369 C174.25251572 48.95003006 174.26630768 49.96440643 174.28051758 51.00952148 C174.2989119 51.90283676 174.31730621 52.79615204 174.33625793 53.71653748 C173.91419657 56.58267446 173.2938349 57.26517028 171 59 C168.50502282 59.37259549 168.50502282 59.37259549 165.46150684 59.36914349 C164.30252976 59.37511663 163.14355268 59.38108978 161.94945508 59.38724393 C160.67028972 59.3785054 159.39112436 59.36976688 158.07319641 59.36076355 C156.7052965 59.36207112 155.33739731 59.36469663 153.96950215 59.36853105 C150.20226361 59.37525767 146.43527963 59.36321366 142.66807353 59.34819686 C138.60878357 59.33527199 134.5495086 59.33962344 130.49020386 59.34190369 C123.45442094 59.34347867 116.41872133 59.33404597 109.38295937 59.31719017 C99.21037382 59.29283522 89.03782866 59.2849985 78.86521711 59.2812262 C62.36186343 59.2746562 45.85855417 59.25468019 29.35522461 59.22631836 C13.32137271 59.19879196 -2.71246714 59.17755144 -18.74633789 59.16479492 C-19.73424526 59.16400675 -20.72215262 59.16321858 -21.73999657 59.16240653 C-26.69591218 59.15849149 -31.65182787 59.15470034 -36.60774362 59.15097082 C-77.73852665 59.11985785 -118.86926079 59.06700715 -160 59 C-161.72329 55.75732607 -162.263997 53.55753541 -162.31884766 49.86425781 C-162.33871735 48.84350159 -162.35858704 47.82274536 -162.37905884 46.77105713 C-162.39061005 45.67613953 -162.40216125 44.58122192 -162.4140625 43.453125 C-162.44311172 41.76361725 -162.44311172 41.76361725 -162.4727478 40.03997803 C-162.53251521 36.44339566 -162.57891819 32.84678124 -162.625 29.25 C-162.66318234 26.81118398 -162.70223422 24.3723814 -162.7421875 21.93359375 C-162.83821449 15.95584856 -162.92327048 9.97802234 -163 4 C-160.14425634 2.57212817 -157.72702289 2.87730762 -154.53341675 2.87974548 C-153.52629959 2.87846385 -153.52629959 2.87846385 -152.49883664 2.87715632 C-150.23861825 2.87550312 -147.97847332 2.88102028 -145.71826172 2.88647461 C-144.10222373 2.88675654 -142.48618562 2.88659863 -140.87014771 2.8860321 C-136.47370099 2.88574436 -132.07728137 2.89163731 -127.68084097 2.89860606 C-123.0897291 2.9048435 -118.49861667 2.90544371 -113.90750122 2.90663147 C-105.20940024 2.90974363 -96.51131179 2.91795548 -87.81321633 2.92798096 C-77.9125136 2.93914566 -68.01181028 2.94465345 -58.11110282 2.94967639 C-37.74072822 2.96013818 -17.3703649 2.9777354 3 3 C2.01 2.01 1.02 1.02 0 0 Z " fill="#F0F0F0" transform="translate(186,214)"/>
<path d="M0 0 C100.98 0 201.96 0 306 0 C306 0.33 306 0.66 306 1 C305.34426498 1.01839432 304.68852997 1.03678864 304.01292419 1.05574036 C297.11657208 1.25172488 290.22093858 1.46574088 283.32543945 1.68969727 C280.76047402 1.77071313 278.19536459 1.84730687 275.63012695 1.91918945 C257.36696455 2.32792075 257.36696455 2.32792075 239.38500977 5.2175293 C235.52924863 6.10881775 231.68036277 6.71864993 227.765625 7.28125 C227.07243668 7.38174652 226.37924835 7.48224304 225.66505432 7.58578491 C224.25054204 7.7892914 222.83581976 7.99134328 221.42089844 8.19198608 C218.44363193 8.61441004 215.46777475 9.04638937 212.49182129 9.47795105 C211.01979287 9.69141616 209.54770714 9.90448639 208.07556152 10.11714172 C202.37841685 10.9409165 196.68634412 11.7922635 191 12.6875 C190.25282715 12.80464355 189.5056543 12.92178711 188.73583984 13.04248047 C185.08490272 13.62652869 181.48070878 14.30984802 177.875 15.125 C174.39321284 15.86504126 170.99710272 16.13847193 167.44287109 16.28585815 C157.46935976 16.70471925 147.8180858 18.14152722 138 19.875 C136.48712325 20.13495452 134.9741021 20.39407007 133.4609375 20.65234375 C127.4853653 21.67659759 121.51471035 22.72777474 115.546875 23.79614258 C107.04810418 25.31512289 98.54729399 26.71307795 90 27.9375 C66.34387761 31.37476379 66.34387761 31.37476379 42.8125 35.5625 C35.56828251 36.96559055 28.29195361 37.97218543 20.97387695 38.91040039 C14.58316793 39.73890197 8.36230325 40.84321759 2 42 C1.67 71.37 1.34 100.74 1 131 C0.67 131 0.34 131 0 131 C0 87.77 0 44.54 0 0 Z " fill="#A50303" transform="translate(22,19)"/>
<path d="M0 0 C0 13.2 0 26.4 0 40 C-81.18 40 -162.36 40 -246 40 C-242.40460771 38.20230385 -240.19223234 37.54713906 -236.31689453 36.94677734 C-235.17535919 36.76674164 -234.03382385 36.58670593 -232.85769653 36.4012146 C-231.6284848 36.21467316 -230.39927307 36.02813171 -229.1328125 35.8359375 C-227.86533173 35.63900299 -226.59785095 35.44206848 -225.29196167 35.23916626 C-222.61112825 34.82316426 -219.92963644 34.41180629 -217.24755859 34.00390625 C-213.82125221 33.48258687 -210.39658126 32.95132341 -206.97232246 32.41673851 C-203.69321209 31.90589128 -200.41299103 31.40238172 -197.1328125 30.8984375 C-195.90764923 30.7078476 -194.68248596 30.51725769 -193.42019653 30.32089233 C-192.27235687 30.14716095 -191.12451721 29.97342957 -189.94189453 29.79443359 C-188.93691925 29.64058197 -187.93194397 29.48673035 -186.89651489 29.32821655 C-183.90603006 28.98935186 -181.00697223 28.94320144 -178 29 C-178 28.34 -178 27.68 -178 27 C-157.87338875 23.68119146 -137.73296056 20.479051 -117.5625 17.4375 C-105.27635896 15.58397119 -92.99892608 13.71230961 -80.75 11.625 C-66.70861611 9.24037849 -52.64167275 7.01810461 -38.57067871 4.81585693 C-35.9126533 4.39972409 -33.25504733 3.98105494 -30.59777832 3.56011963 C-26.83813144 2.96575457 -23.07744306 2.37846582 -19.31640625 1.79296875 C-18.17911575 1.61198135 -17.04182526 1.43099396 -15.87007141 1.24452209 C-14.80507919 1.08028244 -13.74008698 0.91604279 -12.64282227 0.74682617 C-11.71848892 0.60202316 -10.79415558 0.45722015 -9.84181213 0.30802917 C-6.57871444 -0.04566391 -3.28221043 0 0 0 Z " fill="#BF1414" transform="translate(361,173)"/>
<path d="M0 0 C0.72896484 -0.01546875 1.45792969 -0.0309375 2.20898438 -0.046875 C8.4974394 -0.0015936 11.94721056 2.3555841 16.6875 6.4375 C20.30472939 10.70066321 20.67722469 14.68925098 20.59765625 20.15625 C20.5812207 22.06083984 20.5812207 22.06083984 20.56445312 24.00390625 C20.54318359 25.32261719 20.52191406 26.64132813 20.5 28 C20.46549744 30.6145272 20.43537352 33.22911676 20.41015625 35.84375 C20.39218994 37.00068359 20.37422363 38.15761719 20.35571289 39.34960938 C20.42989734 42.20715024 20.77450591 44.72718394 21.4375 47.5 C22.0975 47.5 22.7575 47.5 23.4375 47.5 C23.67984375 46.6646875 23.9221875 45.829375 24.171875 44.96875 C25.13614942 42.32592381 26.06850148 40.2434266 27.453125 37.84375 C27.81664062 37.21339844 28.18015625 36.58304688 28.5546875 35.93359375 C29.31391901 34.6376641 30.08493669 33.34857232 30.8671875 32.06640625 C32.59579888 29.02579127 33.53328811 27.12094221 32.9921875 23.61328125 C30.88664128 19.3968985 28.65412079 15.27713742 26.3125 11.1875 C25.39145011 9.56741639 24.47208182 7.94637518 23.5546875 6.32421875 C23.14847168 5.61354248 22.74225586 4.90286621 22.32373047 4.1706543 C21.4375 2.5 21.4375 2.5 21.4375 1.5 C27.7075 1.5 33.9775 1.5 40.4375 1.5 C42.9125 6.945 42.9125 6.945 45.4375 12.5 C47.4175 8.87 49.3975 5.24 51.4375 1.5 C57.0475 1.5 62.6575 1.5 68.4375 1.5 C67.54437192 5.9656404 67.10985812 7.37144331 64.625 10.8125 C62.62881927 13.71515893 60.69359539 16.59639233 59 19.6875 C58.67128906 20.27917969 58.34257812 20.87085937 58.00390625 21.48046875 C56.63824775 26.34974767 58.66109258 30.16023888 60.94140625 34.390625 C61.95208664 36.18210553 62.97189384 37.96846273 64 39.75 C65.02577987 41.54479699 66.04810189 43.34157614 67.06640625 45.140625 C67.52088135 45.92985352 67.97535645 46.71908203 68.44360352 47.53222656 C69.4375 49.5 69.4375 49.5 69.4375 51.5 C63.1675 51.5 56.8975 51.5 50.4375 51.5 C46.4375 42.875 46.4375 42.875 46.4375 39.5 C45.7775 39.5 45.1175 39.5 44.4375 39.5 C44.334375 40.139375 44.23125 40.77875 44.125 41.4375 C43.898125 42.118125 43.67125 42.79875 43.4375 43.5 C41.9525 43.995 41.9525 43.995 40.4375 44.5 C40.1075 46.81 39.7775 49.12 39.4375 51.5 C28.5475 51.5 17.6575 51.5 6.4375 51.5 C6.4375 50.51 6.4375 49.52 6.4375 48.5 C5.32375 49.16 4.21 49.82 3.0625 50.5 C-1.82986991 52.9245373 -6.18488313 53.36707503 -11.5625 52.5 C-16.46133856 50.78448912 -19.29293202 48.15228157 -21.5625 43.5 C-21.9609375 40.5625 -21.9609375 40.5625 -21.9375 37.5 C-21.94523437 36.489375 -21.95296875 35.47875 -21.9609375 34.4375 C-21.39705622 30.28025765 -19.84443594 27.76702971 -16.8828125 24.83984375 C-12.95506994 22.57180386 -8.59452915 21.62943598 -4.23046875 20.48242188 C-0.02415149 19.35246412 -0.02415149 19.35246412 2.9296875 16.33984375 C3.09726563 15.73269531 3.26484375 15.12554687 3.4375 14.5 C0.06349422 14.08274322 0.06349422 14.08274322 -3.5625 14.5 C-3.975 15.325 -4.3875 16.15 -4.8125 17 C-5.67875 18.2375 -5.67875 18.2375 -6.5625 19.5 C-11.35215519 20.19911116 -15.97034488 20.03071837 -20.5625 18.5 C-21.19117494 13.4706005 -19.83296791 10.6100775 -17.33984375 6.4296875 C-12.28890444 0.94581053 -7.11746571 -0.15183927 0 0 Z " fill="#FAFAFA" transform="translate(113.5625,64.5)"/>
<path d="M0 0 C42.24 0 84.48 0 128 0 C128 1.65 128 3.3 128 5 C126.35 5 124.7 5 123 5 C123 13.91 123 22.82 123 32 C119.37 32 115.74 32 112 32 C112 25.4 112 18.8 112 12 C110.35 12.33 108.7 12.66 107 13 C106.67 17.29 106.34 21.58 106 26 C106.99 26 107.98 26 109 26 C108.125 30.875 108.125 30.875 107 32 C100.05892598 32.45515239 100.05892598 32.45515239 96.7734375 31.04296875 C93.91385595 27.7487812 94.38083688 24.27890272 94.4375 20.0625 C94.40172852 18.84530273 94.40172852 18.84530273 94.36523438 17.60351562 C94.37523979 13.53798335 94.46411154 11.63856782 97.140625 8.44921875 C100.48446561 6.754458 102.58647387 6.58621863 106.3125 6.75 C107.91544922 6.80414063 107.91544922 6.80414063 109.55078125 6.859375 C110.35902344 6.90578125 111.16726563 6.9521875 112 7 C112 6.34 112 5.68 112 5 C100.45 5 88.9 5 77 5 C77.495 5.99 77.495 5.99 78 7 C79.8253125 6.9071875 79.8253125 6.9071875 81.6875 6.8125 C85.58722274 6.7986712 87.83793424 7.60449564 91 10 C92.86916794 11.86916794 92.21688008 14.87444574 92.25 17.375 C92.27578125 18.53773438 92.3015625 19.70046875 92.328125 20.8984375 C92 24 92 24 90.734375 25.859375 C87.72661393 27.8374521 84.55471292 28.15551869 81 28 C79 26.5625 79 26.5625 78 25 C77.67 27.31 77.34 29.62 77 32 C73.37 32 69.74 32 66 32 C66 30.68 66 29.36 66 28 C65.16855469 28.03480469 64.33710938 28.06960938 63.48046875 28.10546875 C61.85044922 28.14607422 61.85044922 28.14607422 60.1875 28.1875 C59.10855469 28.22230469 58.02960938 28.25710938 56.91796875 28.29296875 C54 28 54 28 52.140625 26.95703125 C50.37882119 23.93421033 50.52688959 20.89917596 50.5625 17.5 C50.5325293 16.48486328 50.5325293 16.48486328 50.50195312 15.44921875 C50.50512752 12.23038 50.5737746 10.45943777 52.8046875 8.0546875 C56.01351898 6.51307807 58.49548749 6.61768954 62 7 C63.9375 8.5 63.9375 8.5 65 10 C65.33 8.35 65.66 6.7 66 5 C60.06 5 54.12 5 48 5 C48 13.91 48 22.82 48 32 C44.37 32 40.74 32 37 32 C37 23.09 37 14.18 37 5 C35.02 5 33.04 5 31 5 C31 13.91 31 22.82 31 32 C27.37 32 23.74 32 20 32 C20 25.4 20 18.8 20 12 C18.35 12.66 16.7 13.32 15 14 C15 17.63 15 21.26 15 25 C15.99 25.33 16.98 25.66 18 26 C16.125 30.875 16.125 30.875 15 32 C7.87386455 32.58410946 7.87386455 32.58410946 4.7734375 30.51171875 C2.21518843 26.88847172 2.37494448 23.83472988 2.4375 19.5 C2.41365234 18.74074219 2.38980469 17.98148438 2.36523438 17.19921875 C2.37557303 13.26363654 2.52321767 11.56030624 5.140625 8.484375 C8.48962476 6.74582321 10.56382279 6.58522298 14.3125 6.75 C15.91544922 6.80414063 15.91544922 6.80414063 17.55078125 6.859375 C18.35902344 6.90578125 19.16726562 6.9521875 20 7 C20 6.34 20 5.68 20 5 C13.4 5 6.8 5 0 5 C0 3.35 0 1.7 0 0 Z " fill="#0C0C0C" transform="translate(213,234)"/>
<path d="M0 0 C3.63 0 7.26 0 11 0 C12.98 7.92 14.96 15.84 17 24 C19.46082348 17.02766682 21.48642897 10.39239393 22.60546875 3.08203125 C23 1 23 1 24 0 C27.3 0 30.6 0 34 0 C36.475 11.385 36.475 11.385 39 23 C39.66 21.68 40.32 20.36 41 19 C41.495 18.01 41.99 17.02 42.5 16 C44.68697985 10.9266508 45.24169211 5.43305299 46 0 C49.63 0 53.26 0 57 0 C57 1.32 57 2.64 57 4 C58.32 4 59.64 4 61 4 C61 3.34 61 2.68 61 2 C64.60325874 -0.24979588 67.68010034 -0.29896807 71.875 -0.3125 C73.06867188 -0.32925781 74.26234375 -0.34601563 75.4921875 -0.36328125 C80.81202699 0.18765981 83.97527267 1.7595406 87.375 5.875 C88.99546521 8.99127924 89.40403611 10.56569306 89 14 C85.97759942 14.65227021 83.09784879 15.1513783 80 15 C78.62131719 13.37064759 77.28725907 11.70250393 76 10 C73.20543306 9.53333445 70.85478039 9.76210163 68 10 C68.495 12.475 68.495 12.475 69 15 C69.79664063 15.24234375 70.59328125 15.4846875 71.4140625 15.734375 C86.5882753 20.53400435 86.5882753 20.53400435 91 28 C91.59600668 32.69355262 91.50733147 34.92192062 89.5 39.1875 C85.79901202 43.35111148 82.17177154 46.4126349 76.57421875 47.44921875 C70.49415856 47.72343608 65.03552263 46.50431269 60 43 C56.69652612 39.23111958 55.48158211 34.93621665 55 30 C58.63 29.67 62.26 29.34 66 29 C66.28875 30.134375 66.5775 31.26875 66.875 32.4375 C67.24625 33.613125 67.6175 34.78875 68 36 C70.46816414 37.23408207 72.24661201 37.20197579 75 37.25 C75.886875 37.27578125 76.77375 37.3015625 77.6875 37.328125 C78.450625 37.21984375 79.21375 37.1115625 80 37 C80.66 36.01 81.32 35.02 82 34 C81.34 34 80.68 34 80 34 C80 32.35 80 30.7 80 29 C78.93072266 28.83564453 78.93072266 28.83564453 77.83984375 28.66796875 C69.64961776 27.31211707 62.2267768 26.07152155 57 19 C56.31907929 15.99890502 56.07362765 13.07228112 56 10 C55.67 10.33 55.34 10.66 55 11 C54.34 11 53.68 11 53 11 C52.88527344 11.97453125 52.77054687 12.9490625 52.65234375 13.953125 C52.02484594 18.34230128 50.80962206 22.50299486 49.5625 26.75 C47.63763775 33.46463574 46.08587406 40.08989232 45 47 C41.7 47 38.4 47 35 47 C32.7494713 40.67708603 31.0895914 34.3752383 29.6484375 27.8203125 C29.03442604 24.94392012 29.03442604 24.94392012 28 22 C27.85377197 22.65597168 27.70754395 23.31194336 27.55688477 23.98779297 C26.89478972 26.95080618 26.22869581 29.91290623 25.5625 32.875 C25.33240234 33.90753906 25.10230469 34.94007813 24.86523438 36.00390625 C24.64287109 36.99003906 24.42050781 37.97617188 24.19140625 38.9921875 C23.98717041 39.90339355 23.78293457 40.81459961 23.57250977 41.75341797 C23 44 23 44 22 46 C19.03 46 16.06 46 13 46 C9.46366717 38.59054074 7.76732124 30.76207184 6.125 22.75 C5.00599287 17.53118225 3.32069935 12.47956286 1.67626953 7.40722656 C0 2.1991311 0 2.1991311 0 0 Z " fill="#FAFAFA" transform="translate(241,123)"/>
<path d="M0 0 C0 0.33 0 0.66 0 1 C-21.12 4.3 -42.24 7.6 -64 11 C55.79 11.495 55.79 11.495 178 12 C178 12.66 178 13.32 178 14 C176.515 14.495 176.515 14.495 175 15 C175.99 15.66 176.98 16.32 178 17 C178.38095093 19.27709961 178.38095093 19.27709961 178.38818359 22.15234375 C178.39764008 23.22685791 178.40709656 24.30137207 178.4168396 25.40844727 C178.40773056 27.15532837 178.40773056 27.15532837 178.3984375 28.9375 C178.40130768 30.12851318 178.40417786 31.31952637 178.40713501 32.54663086 C178.40917946 35.06852696 178.40362317 37.59043878 178.39111328 40.11230469 C178.37506597 43.98408286 178.39095019 47.854817 178.41015625 51.7265625 C178.40817389 54.17187732 178.40433036 56.61719148 178.3984375 59.0625 C178.40451019 60.2270874 178.41058289 61.3916748 178.4168396 62.59155273 C178.40738312 63.66606689 178.39792664 64.74058105 178.38818359 65.84765625 C178.38579681 66.79648682 178.38341003 67.74531738 178.38095093 68.72290039 C178.25523712 69.47434326 178.12952332 70.22578613 178 71 C174.59825068 73.26783288 173.42910633 73.25104696 169.43865204 73.25447559 C168.27455826 73.26030779 167.11046449 73.26613998 165.91109514 73.27214891 C164.62619424 73.26836958 163.34129334 73.26459026 162.01745605 73.26069641 C160.64344433 73.26371532 159.26943428 73.26760348 157.89542723 73.27228898 C154.11124425 73.28261126 150.32715556 73.28037647 146.5429647 73.27610838 C142.46520183 73.27364883 138.38746212 73.28264566 134.30970764 73.29014587 C126.31802712 73.30291601 118.32638017 73.30468372 110.33469117 73.30234561 C103.84164882 73.30056502 97.34861669 73.30230651 90.85557556 73.30657005 C89.93265291 73.30716524 89.00973025 73.30776043 88.05884025 73.30837366 C86.18414104 73.30958536 84.30944183 73.3107995 82.43474263 73.31201603 C64.84157264 73.3229003 47.2484218 73.32072477 29.65525073 73.31463119 C13.54609335 73.30946013 -2.56300359 73.32072087 -18.672149 73.33972941 C-35.19869556 73.35908155 -51.72521348 73.3673685 -68.25177145 73.36360615 C-77.53595563 73.36169025 -86.82008834 73.36421944 -96.10426331 73.37832069 C-104.00706154 73.39020203 -111.90977663 73.39167599 -119.81257594 73.37953053 C-123.84735342 73.37361914 -127.88197858 73.37260433 -131.91674614 73.38453293 C-135.60662482 73.39531546 -139.29622262 73.39238045 -142.98608774 73.37827124 C-144.9610957 73.37433415 -146.93611578 73.38523335 -148.91109514 73.39656812 C-150.07518892 73.38936158 -151.23928269 73.38215503 -152.43865204 73.37473011 C-153.95186641 73.37481263 -153.95186641 73.37481263 -155.49565077 73.37489682 C-158 73 -158 73 -159.82503653 71.62250966 C-161.48438006 69.3311185 -161.36099762 67.69733886 -161.34057617 64.88598633 C-161.34034958 63.84513382 -161.34012299 62.80428131 -161.33988953 61.73188782 C-161.32440567 60.60993515 -161.30892181 59.48798248 -161.29296875 58.33203125 C-161.28872391 57.18208176 -161.28447906 56.03213226 -161.28010559 54.84733582 C-161.26329189 51.16882059 -161.22563377 47.49085008 -161.1875 43.8125 C-161.17245669 41.32097144 -161.15876767 38.82943432 -161.14648438 36.33789062 C-161.11337953 30.22507407 -161.06315305 24.11257595 -161 18 C-158.5141028 20.4858972 -158.73813489 21.26305087 -158.69702148 24.69335938 C-158.68037949 25.66776978 -158.66373749 26.64218018 -158.64659119 27.64611816 C-158.63817703 28.70133667 -158.62976288 29.75655518 -158.62109375 30.84375 C-158.60409927 31.92378296 -158.5871048 33.00381592 -158.56959534 34.11657715 C-158.51632269 37.57765821 -158.4761078 41.03872665 -158.4375 44.5 C-158.39361739 47.96121115 -158.34693447 51.42232755 -158.29469299 54.88342285 C-158.26266677 57.04017054 -158.23579847 59.1970019 -158.21446228 61.35388184 C-158.20097244 62.32829224 -158.1874826 63.30270264 -158.17358398 64.30664062 C-158.15931618 65.59664978 -158.15931618 65.59664978 -158.14476013 66.91271973 C-158.13016582 69.05988416 -158.13016582 69.05988416 -157 71 C-114.86661251 71.06860333 -72.73323143 71.12149682 -30.59979919 71.15319599 C-25.63033479 71.1569483 -20.66087049 71.16083125 -15.69140625 71.16479492 C-14.20735295 71.16597532 -14.20735295 71.16597532 -12.69331877 71.16717956 C3.34556604 71.18024853 19.38441873 71.20391055 35.42328446 71.23145839 C51.86949258 71.25947117 68.31568384 71.2761675 84.76191485 71.28226548 C94.9175688 71.28639052 105.07313197 71.29943866 115.22875799 71.3237494 C122.18424822 71.3395557 129.13969124 71.344412 136.09519814 71.34050413 C140.11363701 71.33857458 144.1319168 71.34161953 148.15032768 71.35761642 C151.82422368 71.37213578 155.49785251 71.37300483 159.1717604 71.36269668 C161.14070183 71.36081399 163.10963979 71.37382411 165.07853639 71.38724393 C166.81401544 71.37828421 166.81401544 71.37828421 168.58455467 71.36914349 C169.58929467 71.37028265 170.59403466 71.37142181 171.62922132 71.37259549 C172.41157828 71.24963898 173.19393525 71.12668247 174 71 C176.18905503 67.71641745 176.23386805 66.87374174 176.15112305 63.08544922 C176.12570686 61.58907425 176.12570686 61.58907425 176.09977722 60.06246948 C176.05618828 58.4498674 176.05618828 58.4498674 176.01171875 56.8046875 C175.98906448 55.70150177 175.96641022 54.59831604 175.94306946 53.46170044 C175.89309959 51.12979383 175.83813295 48.79798975 175.77856445 46.46630859 C175.68769394 42.88264843 175.61307109 39.29892663 175.54101562 35.71484375 C175.4905392 33.45310347 175.43913861 31.19138358 175.38671875 28.9296875 C175.35223885 27.31101273 175.35223885 27.31101273 175.31706238 25.65963745 C175.29066177 24.66835846 175.26426117 23.67707947 175.23706055 22.65576172 C175.21548386 21.77878632 175.19390717 20.90181091 175.17167664 19.9982605 C175.21618919 18.00152759 175.21618919 18.00152759 174 17 C172.33014701 16.89168184 170.65573048 16.85314269 168.98240662 16.84178162 C167.89560608 16.8319928 166.80880554 16.82220398 165.68907166 16.81211853 C164.48642166 16.80636307 163.28377167 16.8006076 162.04467773 16.79467773 C160.78632111 16.78477814 159.52796448 16.77487854 158.23147583 16.76467896 C154.77092214 16.73756724 151.31035473 16.71659174 147.84975314 16.69667697 C144.23689169 16.67485593 140.62407285 16.64744831 137.01124573 16.62062073 C130.16539583 16.57064118 123.31952234 16.52572195 116.4736262 16.48259836 C108.68170385 16.43327086 100.88982423 16.37833614 93.09794319 16.32291877 C77.06533482 16.20901798 61.03268733 16.10219667 45 16 C45.33 15.34 45.66 14.68 46 14 C32.47 14 18.94 14 5 14 C6.74506615 15.74506615 9.19039143 15.23282784 11.56640625 15.31640625 C12.69111328 15.35830078 13.81582031 15.40019531 14.97460938 15.44335938 C16.15861328 15.48267578 17.34261719 15.52199219 18.5625 15.5625 C19.75037109 15.60568359 20.93824219 15.64886719 22.16210938 15.69335938 C25.10794784 15.79983546 28.0538743 15.90184841 31 16 C31 16.33 31 16.66 31 17 C-31.37 17 -93.74 17 -158 17 C-158 16.34 -158 15.68 -158 15 C-152.33251843 12.16625922 -147.30267439 11.36776168 -141 11 C-141.99 10.01 -142.98 9.02 -144 8 C-142.68 8 -141.36 8 -140 8 C-140 8.66 -140 9.32 -140 10 C-102.64268468 16.29264519 -63.2206685 9.8982943 -26.47558594 3.00878906 C-17.65371519 1.36412328 -9.00218055 -0.12762088 0 0 Z " fill="#AD8989" transform="translate(183,201)"/>
<path d="M0 0 C5.06018415 1.61269228 7.55417886 4.26924948 10.421875 8.52734375 C11.73210966 12.22833806 11.62623101 16.07810477 11.703125 19.9609375 C11.73073914 21.03336449 11.73073914 21.03336449 11.75891113 22.12745667 C11.81746661 24.40650482 11.87035366 26.6856264 11.921875 28.96484375 C11.98982132 31.96368948 12.06351606 34.96231496 12.140625 37.9609375 C12.15420044 38.64441757 12.16777588 39.32789764 12.1817627 40.03208923 C12.27687217 43.71526111 12.69112618 46.87359965 13.421875 50.52734375 C8.471875 50.52734375 3.521875 50.52734375 -1.578125 50.52734375 C-2.238125 49.20734375 -2.898125 47.88734375 -3.578125 46.52734375 C-4.568125 47.16671875 -5.558125 47.80609375 -6.578125 48.46484375 C-10.51493189 50.68723473 -14.03760799 51.74185636 -18.578125 51.52734375 C-22.71458823 50.35534583 -24.98096333 49.12450542 -28.015625 46.08984375 C-30.30818139 40.86281518 -30.44405482 36.14459281 -29.578125 30.52734375 C-27.80914257 26.2366204 -25.40175751 24.04841738 -21.515625 21.58984375 C-18.578125 20.52734375 -18.578125 20.52734375 -14.578125 20.52734375 C-14.578125 19.86734375 -14.578125 19.20734375 -14.578125 18.52734375 C-15.42117187 18.53894531 -16.26421875 18.55054687 -17.1328125 18.5625 C-18.22851562 18.57152344 -19.32421875 18.58054687 -20.453125 18.58984375 C-21.54367188 18.60144531 -22.63421875 18.61304687 -23.7578125 18.625 C-26.578125 18.52734375 -26.578125 18.52734375 -28.578125 17.52734375 C-28.17530729 11.68648701 -27.465346 8.14998494 -23.578125 3.52734375 C-16.52758483 -2.10693071 -8.60850381 -1.5782257 0 0 Z " fill="#F5F5F5" transform="translate(212.578125,65.47265625)"/>
<path d="M0 0 C1.39992188 -0.0299707 1.39992188 -0.0299707 2.828125 -0.06054688 C9.92372885 -0.05552166 13.23857616 1.28462263 18.4375 6.125 C22.50348975 14.04298005 20.97934344 26.14346743 21.23046875 34.83984375 C21.28654297 36.58201172 21.28654297 36.58201172 21.34375 38.359375 C21.37404297 39.40706055 21.40433594 40.45474609 21.43554688 41.53417969 C21.58523769 44.81003391 21.58523769 44.81003391 22.625 49.4375 C14.21 49.9325 14.21 49.9325 5.625 50.4375 C5.625 49.7775 5.625 49.1175 5.625 48.4375 C4.1090625 48.9325 4.1090625 48.9325 2.5625 49.4375 C-5.34405834 51.61535439 -12.11327234 50.03825717 -19.375 46.4375 C-22.35203852 41.97194222 -21.87781502 37.67697824 -21.375 32.4375 C-20.60911319 29.85650574 -19.64965452 27.82747723 -18.375 25.4375 C-17.715 25.4375 -17.055 25.4375 -16.375 25.4375 C-16.375 24.7775 -16.375 24.1175 -16.375 23.4375 C-11.22049292 21.03206336 -6.17979813 19.55085979 -0.6328125 18.28125 C0.48480469 17.86359375 0.48480469 17.86359375 1.625 17.4375 C1.955 16.4475 2.285 15.4575 2.625 14.4375 C0.645 14.4375 -1.335 14.4375 -3.375 14.4375 C-3.705 15.4275 -4.035 16.4175 -4.375 17.4375 C-6.3337043 17.29673685 -8.29196093 17.1497324 -10.25 17 C-11.34054687 16.91878906 -12.43109375 16.83757812 -13.5546875 16.75390625 C-16.375 16.4375 -16.375 16.4375 -18.375 15.4375 C-19 12.875 -19 12.875 -19.375 10.4375 C-18.715 10.1075 -18.055 9.7775 -17.375 9.4375 C-16.694375 8.014375 -16.694375 8.014375 -16 6.5625 C-12.2856325 -0.58051443 -7.28591183 -0.05489386 0 0 Z " fill="#F9F9F9" transform="translate(309.375,65.5625)"/>
<path d="M0 0 C25.74 0 51.48 0 78 0 C78 1.65 78 3.3 78 5 C76.02 5 74.04 5 72 5 C72 13.91 72 22.82 72 32 C68.37 32 64.74 32 61 32 C61 30.68 61 29.36 61 28 C60.01 28.33 59.02 28.66 58 29 C53.57408323 29.50558225 50.03464036 29.46453241 45.9375 27.625 C43.03002912 23.68584591 43.39449317 19.74890356 44 15 C44.33 14.67 44.66 14.34 45 14 C44.01 13.67 43.02 13.34 42 13 C42 11.35 42 9.7 42 8 C47.94 8 53.88 8 60 8 C60 9.65 60 11.3 60 13 C58.68 13.33 57.36 13.66 56 14 C55.67 16.97 55.34 19.94 55 23 C56.98 23 58.96 23 61 23 C61 16.73 61 10.46 61 4 C53.08 4 45.16 4 37 4 C37 13.24 37 22.48 37 32 C33.37 32 29.74 32 26 32 C26 27.71 26 23.42 26 19 C24.02 19 22.04 19 20 19 C19.505 16.525 19.505 16.525 19 14 C17.68 14.99 16.36 15.98 15 17 C15.99 17.66 16.98 18.32 18 19 C18.66666667 21.33333333 19.33333333 23.66666667 20 26 C20.99 26.66 21.98 27.32 23 28 C22.34 29.32 21.68 30.64 21 32 C19.41753293 32.08153933 17.83383727 32.13943557 16.25 32.1875 C14.92742187 32.23970703 14.92742187 32.23970703 13.578125 32.29296875 C10.46800431 31.93954594 9.18425266 31.22396635 7 29 C6.1960452 26.30469001 6.18580498 23.83352598 6 21 C4.68 20.67 3.36 20.34 2 20 C2 18.02 2 16.04 2 14 C3.98 13.67 5.96 13.34 8 13 C8 10.36 8 7.72 8 5 C5.36 5 2.72 5 0 5 C0 3.35 0 1.7 0 0 Z " fill="#0B0B0B" transform="translate(51,234)"/>
<path d="M0 0 C1.26360352 -0.03673828 1.26360352 -0.03673828 2.55273438 -0.07421875 C8.25669352 -0.10097696 11.2798286 0.71712326 15.6875 4.375 C16.6875 5.375 16.6875 5.375 16.75 7.9375 C16.729375 8.741875 16.70875 9.54625 16.6875 10.375 C19.3275 10.375 21.9675 10.375 24.6875 10.375 C24.6875 12.025 24.6875 13.675 24.6875 15.375 C23.0375 15.375 21.3875 15.375 19.6875 15.375 C19.6875 24.285 19.6875 33.195 19.6875 42.375 C16.0575 42.375 12.4275 42.375 8.6875 42.375 C8.6875 33.135 8.6875 23.895 8.6875 14.375 C2.4175 14.375 -3.8525 14.375 -10.3125 14.375 C-10.3125 15.695 -10.3125 17.015 -10.3125 18.375 C-9.6525 18.045 -8.9925 17.715 -8.3125 17.375 C0.51458942 16.79617446 0.51458942 16.79617446 4.6875 20.375 C5.21411171 23.12577177 5.39069598 25.13814085 5.3125 27.875 C5.33183594 28.55175781 5.35117188 29.22851562 5.37109375 29.92578125 C5.3515625 31.90625 5.3515625 31.90625 4.6875 35.375 C2.0668572 37.52151335 0.40053329 38.2731381 -2.9375 38.75 C-5.74730343 38.30634683 -6.65030641 37.6495807 -8.3125 35.375 C-8.3125 34.715 -8.3125 34.055 -8.3125 33.375 C-7.6525 33.375 -6.9925 33.375 -6.3125 33.375 C-6.3125 30.075 -6.3125 26.775 -6.3125 23.375 C-7.6325 23.375 -8.9525 23.375 -10.3125 23.375 C-10.3125 29.645 -10.3125 35.915 -10.3125 42.375 C-13.6125 42.375 -16.9125 42.375 -20.3125 42.375 C-20.3125 41.055 -20.3125 39.735 -20.3125 38.375 C-21.14394531 38.40980469 -21.97539062 38.44460938 -22.83203125 38.48046875 C-24.46205078 38.52107422 -24.46205078 38.52107422 -26.125 38.5625 C-27.20394531 38.59730469 -28.28289062 38.63210938 -29.39453125 38.66796875 C-32.3125 38.375 -32.3125 38.375 -34.171875 37.33203125 C-35.93367881 34.30921033 -35.78561041 31.27417596 -35.75 27.875 C-35.76998047 27.19824219 -35.78996094 26.52148438 -35.81054688 25.82421875 C-35.80737248 22.60538 -35.7387254 20.83443777 -33.5078125 18.4296875 C-30.29898102 16.88807807 -27.81701251 16.99268954 -24.3125 17.375 C-22.375 18.875 -22.375 18.875 -21.3125 20.375 C-20.9825 18.395 -20.6525 16.415 -20.3125 14.375 C-26.2525 14.375 -32.1925 14.375 -38.3125 14.375 C-38.3125 13.055 -38.3125 11.735 -38.3125 10.375 C-29.4025 10.375 -20.4925 10.375 -11.3125 10.375 C-11.9725 9.385 -12.6325 8.395 -13.3125 7.375 C-13.125 4.8125 -13.125 4.8125 -12.3125 2.375 C-8.18119677 -0.37920215 -4.85474781 0.00732792 0 0 Z " fill="#090909" transform="translate(176.3125,223.625)"/>
<path d="M0 0 C4.48625012 2.78193086 5.24938659 5.51066076 6.45947266 10.48291016 C7.59017758 17.84015275 7.30384455 25.26413258 7.1875 32.6875 C7.17242022 34.37173277 7.15873767 36.05597867 7.14648438 37.74023438 C7.11632807 41.82741943 7.05756695 45.9127464 7 50 C2.05 50 -2.9 50 -8 50 C-8.33 39.44 -8.66 28.88 -9 18 C-9.99 18 -10.98 18 -12 18 C-12.66 18.99 -13.32 19.98 -14 21 C-14.99 21 -15.98 21 -17 21 C-17 30.57 -17 40.14 -17 50 C-21.95 50 -26.9 50 -32 50 C-32 33.5 -32 17 -32 0 C-27.38 0 -22.76 0 -18 0 C-17.67 1.65 -17.34 3.3 -17 5 C-16.071875 4.195625 -15.14375 3.39125 -14.1875 2.5625 C-9.78355114 -1.25425568 -5.56674245 -1.4958617 0 0 Z " fill="#FBFBFB" transform="translate(80,66)"/>
<path d="M0 0 C6.27 0 12.54 0 19 0 C21.475 5.445 21.475 5.445 24 11 C25.98 7.37 27.96 3.74 30 0 C35.61 0 41.22 0 47 0 C46.10687192 4.4656404 45.67235812 5.87144331 43.1875 9.3125 C41.19131927 12.21515893 39.25609539 15.09639233 37.5625 18.1875 C37.23378906 18.77917969 36.90507812 19.37085937 36.56640625 19.98046875 C35.20074775 24.84974767 37.22359258 28.66023888 39.50390625 32.890625 C40.51458664 34.68210553 41.53439384 36.46846273 42.5625 38.25 C43.58827987 40.04479699 44.61060189 41.84157614 45.62890625 43.640625 C46.08338135 44.42985352 46.53785645 45.21908203 47.00610352 46.03222656 C48 48 48 48 48 50 C41.73 50 35.46 50 29 50 C25 41.375 25 41.375 25 38 C24.34 38 23.68 38 23 38 C22.896875 38.639375 22.79375 39.27875 22.6875 39.9375 C22.460625 40.618125 22.23375 41.29875 22 42 C20.515 42.495 20.515 42.495 19 43 C17.84478498 45.47130918 17.84478498 45.47130918 17 48 C16 49 16 49 12.62109375 49.09765625 C11.22652923 49.09098369 9.83198257 49.07902532 8.4375 49.0625 C7.37112305 49.05573242 7.37112305 49.05573242 6.28320312 49.04882812 C4.52209987 49.03700864 2.76103964 49.01907263 1 49 C2.27372811 44.46234361 3.72532805 40.37497509 6.05078125 36.2734375 C6.42009766 35.62060791 6.78941406 34.96777832 7.16992188 34.29516602 C7.92299874 32.98838456 8.69357176 31.69150889 9.48242188 30.40600586 C11.2054927 27.41386344 12.0913718 25.58477949 11.55078125 22.125 C9.45418992 17.90013082 7.2183607 13.78017618 4.875 9.6875 C3.95395011 8.06741639 3.03458182 6.44637518 2.1171875 4.82421875 C1.71097168 4.11354248 1.30475586 3.40286621 0.88623047 2.6706543 C0 1 0 1 0 0 Z " fill="#F8F8F8" transform="translate(135,66)"/>
<path d="M0 0 C0 6.27 0 12.54 0 19 C2.31 19 4.62 19 7 19 C7 24.61 7 30.22 7 36 C4.69 36 2.38 36 0 36 C0 41.94 0 47.88 0 54 C2.97 53.505 2.97 53.505 6 53 C7.00109515 56.31070838 7.10356134 59.30084769 7.0625 62.75 C7.05347656 63.73484375 7.04445312 64.7196875 7.03515625 65.734375 C7.02355469 66.48203125 7.01195312 67.2296875 7 68 C1.19356635 69.75206601 -5.02638983 69.76258853 -11 69 C-14.52016246 66.81887973 -15.70604261 63.88187218 -17 60 C-17.08239169 58.15389468 -17.10743359 56.30494836 -17.09765625 54.45703125 C-17.09443359 53.38388672 -17.09121094 52.31074219 -17.08789062 51.20507812 C-17.07951172 50.08552734 -17.07113281 48.96597656 -17.0625 47.8125 C-17.05798828 46.68134766 -17.05347656 45.55019531 -17.04882812 44.38476562 C-17.03703498 41.58979073 -17.0205765 38.7949218 -17 36 C-18.65 36 -20.3 36 -22 36 C-22 30.39 -22 24.78 -22 19 C-20.35 19 -18.7 19 -17 19 C-17.16371094 17.80375 -17.32742187 16.6075 -17.49609375 15.375 C-17.49548158 12.59820958 -17.36797492 11.41943571 -15.51611328 9.30859375 C-13.42920638 7.73248265 -11.30170668 6.35075339 -9.0625 5 C-8.30775391 4.51144531 -7.55300781 4.02289063 -6.77539062 3.51953125 C-1.27920387 0 -1.27920387 0 0 0 Z " fill="#F7F7F7" transform="translate(248,47)"/>
<path d="M0 0 C5.33505477 2.72477046 7.74768729 6.72979329 10.1953125 11.9921875 C10.9453125 15.3046875 10.9453125 15.3046875 10.9453125 26.3046875 C1.7053125 26.3046875 -7.5346875 26.3046875 -17.0546875 26.3046875 C-15.00991668 32.3028238 -15.00991668 32.3028238 -11.0546875 36.3046875 C-8.33485021 37.15318375 -5.90105845 37.60370021 -3.0546875 37.3046875 C-0.57060049 35.15798062 -0.57060049 35.15798062 0.9453125 32.3046875 C1.6053125 31.3146875 2.2653125 30.3246875 2.9453125 29.3046875 C4.890625 29.01171875 4.890625 29.01171875 7.0703125 29.1171875 C8.3490625 29.1790625 9.6278125 29.2409375 10.9453125 29.3046875 C9.09057303 35.75412246 7.3736139 40.83703097 1.71484375 44.91015625 C-3.28420425 47.42730736 -8.59680126 46.92178519 -14.0546875 46.3046875 C-17.80982579 45.01125098 -19.63468506 43.14469238 -21.4296875 39.5546875 C-21.6359375 38.8121875 -21.8421875 38.0696875 -22.0546875 37.3046875 C-22.7146875 37.3046875 -23.3746875 37.3046875 -24.0546875 37.3046875 C-27.19258267 29.72144084 -28.03335397 22.48902577 -27.0546875 14.3046875 C-24.32502837 7.86608475 -20.31175897 3.36456225 -14.07421875 0.03515625 C-9.47109455 -1.62980357 -4.62378589 -1.56470321 0 0 Z " fill="#F3F3F3" transform="translate(231.0546875,123.6953125)"/>
<path d="M0 0 C100.98 0 201.96 0 306 0 C306 0.33 306 0.66 306 1 C305.34426498 1.01839432 304.68852997 1.03678864 304.01292419 1.05574036 C297.11657208 1.25172488 290.22093858 1.46574088 283.32543945 1.68969727 C280.76047402 1.77071313 278.19536459 1.84730687 275.63012695 1.91918945 C257.36696455 2.32792075 257.36696455 2.32792075 239.38500977 5.2175293 C235.52924863 6.10881775 231.68036277 6.71864993 227.765625 7.28125 C227.07243668 7.38174652 226.37924835 7.48224304 225.66505432 7.58578491 C224.25054204 7.7892914 222.83581976 7.99134328 221.42089844 8.19198608 C218.44363193 8.61441004 215.46777475 9.04638937 212.49182129 9.47795105 C211.01979287 9.69141616 209.54770714 9.90448639 208.07556152 10.11714172 C202.37841934 10.94091614 196.68631919 11.79211426 191 12.6875 C190.25862793 12.80391846 189.51725586 12.92033691 188.75341797 13.0402832 C184.93397594 13.65216157 181.15433693 14.36540858 177.375 15.1875 C172.85981084 16.14936248 168.60791164 16.14864231 164 16 C164 15.67 164 15.34 164 15 C171.68453888 13.71149318 179.36937538 12.4247775 187.05458832 11.14029789 C190.62377771 10.54369931 194.19286479 9.94650255 197.76171875 9.34790039 C201.21092615 8.76938977 204.66040128 8.19250054 208.11006165 7.61669731 C210.05545271 7.29155701 212.00056872 6.96477233 213.94567871 6.63795471 C215.14631958 6.43782272 216.34696045 6.23769073 217.58398438 6.03149414 C219.15617737 5.76835167 219.15617737 5.76835167 220.76013184 5.49989319 C224.49576098 4.92350691 228.24935419 4.46883073 232 4 C156.1 3.67 80.2 3.34 2 3 C2 15.87 2 28.74 2 42 C1.94345472 49.75978736 1.87870765 57.51817554 1.78125 65.27734375 C1.75863222 67.21700312 1.73621765 69.15666487 1.71398926 71.09632874 C1.656792 76.04255652 1.59696079 80.98874847 1.53643799 85.93493652 C1.47441449 91.04579709 1.41507893 96.15668894 1.35546875 101.26757812 C1.23950304 111.17841642 1.12073477 121.08921873 1 131 C0.67 131 0.34 131 0 131 C0 87.77 0 44.54 0 0 Z " fill="#CF7070" transform="translate(22,19)"/>
<path d="M0 0 C3.14133752 2.29853965 4.76840788 4.42482284 6.5625 7.875 C6.8125 10.75 6.8125 10.75 6.5625 12.875 C3.54009942 13.52727021 0.66034879 14.0263783 -2.4375 13.875 C-3.81618281 12.24564759 -5.15024093 10.57750393 -6.4375 8.875 C-9.23206694 8.40833445 -11.58271961 8.63710163 -14.4375 8.875 C-14.1075 10.525 -13.7775 12.175 -13.4375 13.875 C-12.24253906 14.23851562 -12.24253906 14.23851562 -11.0234375 14.609375 C4.1507753 19.40900435 4.1507753 19.40900435 8.5625 26.875 C9.15850668 31.56855262 9.06983147 33.79692062 7.0625 38.0625 C3.36151202 42.22611148 -0.26572846 45.2876349 -5.86328125 46.32421875 C-11.94334144 46.59843608 -17.40197737 45.37931269 -22.4375 41.875 C-25.74097388 38.10611958 -26.95591789 33.81121665 -27.4375 28.875 C-23.8075 28.545 -20.1775 28.215 -16.4375 27.875 C-16.14875 29.009375 -15.86 30.14375 -15.5625 31.3125 C-15.19125 32.488125 -14.82 33.66375 -14.4375 34.875 C-11.96933586 36.10908207 -10.19088799 36.07697579 -7.4375 36.125 C-6.550625 36.15078125 -5.66375 36.1765625 -4.75 36.203125 C-3.986875 36.09484375 -3.22375 35.9865625 -2.4375 35.875 C-1.7775 34.885 -1.1175 33.895 -0.4375 32.875 C-1.0975 32.875 -1.7575 32.875 -2.4375 32.875 C-2.4375 31.225 -2.4375 29.575 -2.4375 27.875 C-3.50677734 27.71064453 -3.50677734 27.71064453 -4.59765625 27.54296875 C-11.73259 26.36181552 -19.05972342 25.12501083 -24.4375 19.875 C-25.07018912 14.39433048 -24.1039457 9.23169303 -21.6875 4.3125 C-15.62441469 -2.25584242 -8.35592805 -2.73466736 0 0 Z " fill="#F4F4F4" transform="translate(323.4375,124.125)"/>
<path d="M0 0 C0.99 0.66 1.98 1.32 3 2 C2.71515154 3.73030291 2.42180062 5.45920714 2.125 7.1875 C1.96257812 8.15042969 1.80015625 9.11335938 1.6328125 10.10546875 C1.01960483 12.91032604 0.14333657 15.37224747 -1 18 C-3.31 18 -5.62 18 -8 18 C-10.09534185 21.45547603 -10.30071628 24.29197531 -10.4140625 28.296875 C-10.47207031 30.10478516 -10.47207031 30.10478516 -10.53125 31.94921875 C-10.5621875 33.20347656 -10.593125 34.45773438 -10.625 35.75 C-10.66367187 37.01972656 -10.70234375 38.28945312 -10.7421875 39.59765625 C-10.83644222 42.7316257 -10.92205166 45.86558949 -11 49 C-13.31243792 49.02685412 -15.6249627 49.04632841 -17.9375 49.0625 C-19.22527344 49.07410156 -20.51304687 49.08570313 -21.83984375 49.09765625 C-25 49 -25 49 -26 48 C-26.09311889 46.49581261 -26.11746028 44.98728644 -26.11352539 43.48022461 C-26.11344986 42.51930405 -26.11337433 41.55838348 -26.11329651 40.56834412 C-26.10813522 39.523564 -26.10297394 38.47878387 -26.09765625 37.40234375 C-26.0962413 36.33834854 -26.09482635 35.27435333 -26.09336853 34.17811584 C-26.08775064 30.76454917 -26.07519511 27.351047 -26.0625 23.9375 C-26.05748731 21.62955824 -26.052924 19.32161545 -26.04882812 17.01367188 C-26.03777539 11.34242289 -26.02049877 5.6712224 -26 0 C-21.38 0 -16.76 0 -12 0 C-11.67 0.66 -11.34 1.32 -11 2 C-10.484375 1.484375 -9.96875 0.96875 -9.4375 0.4375 C-5.97643639 -1.60364008 -3.82628983 -0.90439578 0 0 Z " fill="#FAFAFA" transform="translate(286,66)"/>
<path d="M0 0 C1.17145065 -0.00014603 2.34290131 -0.00029205 3.54985046 -0.0004425 C7.40768306 0.00025211 11.26546689 0.00802341 15.12329102 0.01586914 C17.80371686 0.01773492 20.48414002 0.01920729 23.16456604 0.02015686 C29.48963303 0.02325815 35.81468261 0.03145527 42.13974196 0.04150635 C49.34411788 0.0527049 56.54849465 0.05818735 63.75287712 0.06320179 C78.56515937 0.07363894 93.37742802 0.09121501 108.18969727 0.11352539 C106.70469727 1.10352539 106.70469727 1.10352539 105.18969727 2.11352539 C106.17969727 2.77352539 107.16969727 3.43352539 108.18969727 4.11352539 C108.57064819 6.390625 108.57064819 6.390625 108.57788086 9.26586914 C108.58733734 10.3403833 108.59679382 11.41489746 108.60653687 12.52197266 C108.59742783 14.26885376 108.59742783 14.26885376 108.58813477 16.05102539 C108.59100494 17.24203857 108.59387512 18.43305176 108.59683228 19.66015625 C108.59887672 22.18205235 108.59332044 24.70396418 108.58081055 27.22583008 C108.56476324 31.09760825 108.58064745 34.96834239 108.59985352 38.84008789 C108.59787115 41.28540271 108.59402762 43.73071687 108.58813477 46.17602539 C108.59420746 47.34061279 108.60028015 48.5052002 108.60653687 49.70507812 C108.59708038 50.77959229 108.5876239 51.85410645 108.57788086 52.96118164 C108.57549408 53.91001221 108.5731073 54.85884277 108.57064819 55.83642578 C108.44493439 56.58786865 108.31922058 57.33931152 108.18969727 58.11352539 C104.78794794 60.38135827 103.6188036 60.36457235 99.6283493 60.36800098 C98.46425553 60.37383318 97.30016175 60.37966537 96.10079241 60.3856743 C94.81589151 60.38189497 93.53099061 60.37811565 92.20715332 60.3742218 C90.83314159 60.37724071 89.45913155 60.38112888 88.08512449 60.38581437 C84.30094151 60.39613665 80.51685283 60.39390186 76.73266196 60.38963377 C72.65489909 60.38717422 68.57715938 60.39617105 64.49940491 60.40367126 C56.50772439 60.4164414 48.51607743 60.41820911 40.52438843 60.415871 C34.03134608 60.41409041 27.53831395 60.4158319 21.04527283 60.42009544 C20.12235017 60.42069063 19.19942752 60.42128582 18.24853751 60.42189905 C16.3738383 60.42311075 14.4991391 60.42432489 12.6244399 60.42554142 C-4.96873009 60.43642569 -22.56188093 60.43425016 -40.15505201 60.42815658 C-56.26420938 60.42298552 -72.37330632 60.43424626 -88.48245174 60.4532548 C-105.00899829 60.47260694 -121.53551622 60.48089389 -138.06207418 60.47713155 C-147.34625836 60.47521565 -156.63039108 60.47774483 -165.91456604 60.49184608 C-173.81736427 60.50372742 -181.72007936 60.50520138 -189.62287867 60.49305592 C-193.65765615 60.48714453 -197.69228131 60.48612972 -201.72704887 60.49805832 C-205.41692756 60.50884085 -209.10652536 60.50590584 -212.79639047 60.49179664 C-214.77139843 60.48785954 -216.74641852 60.49875874 -218.72139788 60.51009351 C-219.88549165 60.50288697 -221.04958543 60.49568042 -222.24895477 60.4882555 C-223.76216914 60.48833802 -223.76216914 60.48833802 -225.3059535 60.48842221 C-227.81030273 60.11352539 -227.81030273 60.11352539 -229.63533926 58.73603505 C-231.2946828 56.44464389 -231.17130035 54.81086425 -231.15087891 51.99951172 C-231.15065231 50.95865921 -231.15042572 49.9178067 -231.15019226 48.84541321 C-231.1347084 47.72346054 -231.11922455 46.60150787 -231.10327148 45.44555664 C-231.09902664 44.29560715 -231.0947818 43.14565765 -231.09040833 41.96086121 C-231.07359463 38.28234598 -231.03593651 34.60437547 -230.99780273 30.92602539 C-230.98275942 28.43449684 -230.96907041 25.94295971 -230.95678711 23.45141602 C-230.92368226 17.33859946 -230.87345579 11.22610134 -230.81030273 5.11352539 C-228.32440553 7.59942259 -228.54843763 8.37657626 -228.50732422 11.80688477 C-228.49068222 12.78129517 -228.47404022 13.75570557 -228.45689392 14.75964355 C-228.44847977 15.81486206 -228.44006561 16.87008057 -228.43139648 17.95727539 C-228.41440201 19.03730835 -228.39740753 20.11734131 -228.37989807 21.23010254 C-228.32662543 24.6911836 -228.28641054 28.15225204 -228.24780273 31.61352539 C-228.20392012 35.07473654 -228.1572372 38.53585294 -228.10499573 41.99694824 C-228.0729695 44.15369593 -228.04610121 46.3105273 -228.02476501 48.46740723 C-228.01127518 49.44181763 -227.99778534 50.41622803 -227.98388672 51.42016602 C-227.97437485 52.28017212 -227.96486298 53.14017822 -227.95506287 54.02624512 C-227.94046855 56.17340955 -227.94046855 56.17340955 -226.81030273 58.11352539 C-184.67691524 58.18212872 -142.54353417 58.23502221 -100.41010193 58.26672138 C-95.44063752 58.27047369 -90.47117323 58.27435664 -85.50170898 58.27832031 C-84.01765568 58.27950071 -84.01765568 58.27950071 -82.5036215 58.28070495 C-66.46473669 58.29377392 -50.42588401 58.31743594 -34.38701828 58.34498378 C-17.94081015 58.37299656 -1.49461889 58.38969289 14.95161211 58.39579087 C25.10726606 58.39991591 35.26282924 58.41296405 45.41845526 58.43727479 C52.37394549 58.45308109 59.3293885 58.45793739 66.28489541 58.45402952 C70.30333427 58.45209997 74.32161406 58.45514492 78.34002495 58.47114182 C82.01392095 58.48566117 85.68754978 58.48653022 89.36145766 58.47622208 C91.33039909 58.47433938 93.29933706 58.4873495 95.26823366 58.50076932 C97.00371271 58.4918096 97.00371271 58.4918096 98.77425194 58.48266888 C99.77899193 58.48380804 100.78373193 58.4849472 101.81891859 58.48612088 C102.60127555 58.36316437 103.38363251 58.24020786 104.18969727 58.11352539 C106.3787523 54.82994284 106.42356532 53.98726713 106.34082031 50.19897461 C106.31540413 48.70259964 106.31540413 48.70259964 106.28947449 47.17599487 C106.24588554 45.56339279 106.24588554 45.56339279 106.20141602 43.91821289 C106.17876175 42.81502716 106.15610748 41.71184143 106.13276672 40.57522583 C106.08279685 38.24331922 106.02783022 35.91151515 105.96826172 33.57983398 C105.87739121 29.99617382 105.80276835 26.41245203 105.73071289 22.82836914 C105.68023646 20.56662886 105.62883587 18.30490897 105.57641602 16.04321289 C105.54193611 14.42453812 105.54193611 14.42453812 105.50675964 12.77316284 C105.48035904 11.78188385 105.45395844 10.79060486 105.42675781 9.76928711 C105.40518112 8.89231171 105.38360443 8.0153363 105.3613739 7.11178589 C105.40588646 5.11505298 105.40588646 5.11505298 104.18969727 4.11352539 C102.68534397 4.00781183 101.17608065 3.97113596 99.66804504 3.96203613 C98.20230545 3.94952065 98.20230545 3.94952065 96.70695496 3.93675232 C95.62594009 3.9325679 94.54492523 3.92838348 93.43115234 3.92407227 C92.29947632 3.91577896 91.16780029 3.90748566 90.00183105 3.89894104 C87.53438048 3.88149272 85.0669129 3.86633917 82.59943581 3.85316467 C78.69528933 3.83220054 74.79122764 3.8051701 70.88713074 3.77648926 C62.5921882 3.71632064 54.2972001 3.66458104 46.00219727 3.61352539 C36.40986467 3.55439514 26.81757481 3.49194485 17.225317 3.42164612 C13.37766706 3.39507536 9.53001306 3.37425355 5.68232727 3.3536377 C3.31995449 3.33703 0.95758354 3.32015775 -1.40478516 3.30297852 C-2.47567886 3.2987941 -3.54657257 3.29460968 -4.6499176 3.29029846 C-9.47714871 3.24966652 -14.06581043 3.12616656 -18.81030273 2.11352539 C-18.81030273 1.78352539 -18.81030273 1.45352539 -18.81030273 1.11352539 C-12.52516505 -0.0081745 -6.37308868 -0.02088847 0 0 Z " fill="#646464" transform="translate(252.810302734375,213.886474609375)"/>
<path d="M0 0 C3.35441225 1.61754267 5.38366984 3.83609943 7.14013672 7.15307617 C8.27372477 10.90627613 8.24790161 14.4830003 8.1953125 18.36328125 C8.1924826 19.15526413 8.18965271 19.94724701 8.18673706 20.76322937 C8.17558863 23.27980999 8.15049422 25.79602789 8.125 28.3125 C8.11496329 30.02408338 8.10583864 31.73567237 8.09765625 33.44726562 C8.07566681 37.63164906 8.04117408 41.81576314 8 46 C5.36 46 2.72 46 0 46 C0 34.78 0 23.56 0 12 C-4.46452523 10.21418991 -6.41025572 9.51172933 -11 10 C-13.27398915 10.95872432 -13.27398915 10.95872432 -15 13 C-15.42677963 15.63454348 -15.60478396 17.87230436 -15.609375 20.51171875 C-15.62591125 21.23994339 -15.64244751 21.96816803 -15.65948486 22.71846008 C-15.70802197 25.04155865 -15.72934669 27.3640025 -15.75 29.6875 C-15.77815518 31.26370492 -15.80808199 32.83987926 -15.83984375 34.41601562 C-15.91378144 38.27728983 -15.96332032 42.13819939 -16 46 C-18.97 46 -21.94 46 -25 46 C-25 31.15 -25 16.3 -25 1 C-22.36 1 -19.72 1 -17 1 C-16.67 1.99 -16.34 2.98 -16 4 C-15.401875 3.34 -14.80375 2.68 -14.1875 2 C-9.53955405 -0.91635824 -5.35064691 -0.91008071 0 0 Z " fill="#DBDBDB" transform="translate(191,123)"/>
<path d="M0 0 C3.92253203 2.04871099 6.40221851 4.12603243 7.90234375 8.2734375 C8.60098679 12.87164933 8.97966596 17.22245295 6.765625 21.4375 C3.75728126 25.14858021 0.50496056 27.82947928 -4.09765625 29.2734375 C-9.07149929 29.55564136 -12.15278788 29.05747721 -16.03515625 25.8359375 C-16.71578125 24.9903125 -17.39640625 24.1446875 -18.09765625 23.2734375 C-18.75765625 22.6134375 -19.41765625 21.9534375 -20.09765625 21.2734375 C-21.92235113 15.69340282 -22.03682543 10.15177586 -19.41015625 4.8984375 C-14.12187482 -1.10447656 -7.67662552 -2.65894292 0 0 Z " fill="#A90B0B" transform="translate(143.09765625,137.7265625)"/>
<path d="M0 0 C0.33 0.66 0.66 1.32 1 2 C2.51688919 1.98120789 2.51688919 1.98120789 4.06442261 1.96203613 C17.00121578 1.80236466 29.93807914 1.64896052 42.875 1.5 C44.42177114 1.48218412 44.42177114 1.48218412 45.99979019 1.46400833 C80.66864556 1.06682693 115.32886751 0.85820024 150 1 C150.33 1.66 150.66 2.32 151 3 C152.98 3.99 152.98 3.99 155 5 C101.54 5 48.08 5 -7 5 C-7 4.34 -7 3.68 -7 3 C-4.69 2.01 -2.38 1.02 0 0 Z " fill="#424242" transform="translate(32,213)"/>
<path d="M0 0 C5.61107016 6.41598459 7.00747985 13.28910115 6.99916077 21.69137573 C7.00053543 22.76822128 7.0019101 23.84506683 7.00332642 24.95454407 C6.9979335 26.70350227 6.9979335 26.70350227 6.99243164 28.48779297 C6.99257767 29.72737259 6.99272369 30.96695221 6.99287415 32.24409485 C6.99229824 35.63001932 6.9872945 39.01588227 6.98030019 42.40179586 C6.97403472 45.9451997 6.97346033 49.48860442 6.97227478 53.03201294 C6.96917087 59.73606359 6.96097017 66.44009787 6.95092529 73.14414132 C6.93973493 80.77895759 6.93424634 88.41377466 6.92922986 96.0485971 C6.91878676 111.74855337 6.90120556 127.44849332 6.87890625 143.1484375 C6.21890625 143.1484375 5.55890625 143.1484375 4.87890625 143.1484375 C3.96238854 140.03272903 3.7634762 137.26942679 3.78556824 134.02719116 C3.78997421 132.992789 3.79438019 131.95838684 3.79891968 130.89263916 C3.80879913 129.76323914 3.81867859 128.63383911 3.82885742 127.47021484 C3.83513657 126.27625092 3.84141571 125.08228699 3.84788513 123.85214233 C3.86174287 121.25704197 3.87768023 118.66195207 3.89543724 116.06687546 C3.92333467 111.95562647 3.94030098 107.84437784 3.95491028 103.73306274 C3.96005417 102.32327075 3.96521079 100.91347881 3.97037983 99.5036869 C3.97296539 98.7976757 3.97555095 98.09166449 3.97821486 97.364259 C4.01419844 87.79662071 4.0594797 78.22909941 4.12573242 68.66162109 C4.17036674 62.2033361 4.20053057 55.74515354 4.21458989 49.28672755 C4.22262934 45.87356329 4.23799198 42.46079063 4.27126122 39.04777145 C4.30512751 35.23267316 4.31390086 31.41825773 4.31713867 27.60302734 C4.33309082 26.48577271 4.34904297 25.36851807 4.36547852 24.21740723 C4.33233653 15.62165184 2.39585323 9.07191367 -2.24609375 1.8359375 C-9.58386613 -5.02328451 -19.2345467 -8.00125458 -29.1484375 -8.265625 C-30.43427734 -8.30429687 -31.72011719 -8.34296875 -33.04492188 -8.3828125 C-34.38280793 -8.41425749 -35.72069864 -8.44550509 -37.05859375 -8.4765625 C-38.42385131 -8.51480592 -39.78908639 -8.5538612 -41.15429688 -8.59375 C-44.47642915 -8.68766187 -47.79856116 -8.77334037 -51.12109375 -8.8515625 C-51.12109375 -9.1815625 -51.12109375 -9.5115625 -51.12109375 -9.8515625 C-47.12156593 -10.0501877 -43.12147197 -10.23344342 -39.12109375 -10.4140625 C-37.99574219 -10.47013672 -36.87039063 -10.52621094 -35.7109375 -10.58398438 C-22.12207449 -11.17998714 -10.20786271 -9.82438307 0 0 Z " fill="#2B2B2B" transform="translate(354.12109375,29.8515625)"/>
<path d="M0 0 C15.51 0 31.02 0 47 0 C45.68 0.66 44.36 1.32 43 2 C48.94 2.495 48.94 2.495 55 3 C55 3.33 55 3.66 55 4 C41.50434168 4.79271488 28.07102456 5.14152821 14.55371094 5.11352539 C12.60004681 5.11324236 10.64638257 5.1134035 8.69271851 5.1139679 C3.458523 5.11425137 -1.77564896 5.10842833 -7.00983906 5.10139394 C-12.50572397 5.09508458 -18.00160959 5.09455066 -23.49749756 5.09336853 C-33.87371505 5.09027735 -44.24992183 5.08209419 -54.62613463 5.07201904 C-66.45224864 5.06078866 -78.2783632 5.05533011 -90.10448122 5.05032361 C-114.40299339 5.0399094 -138.70149609 5.02235341 -163 5 C-161 3 -161 3 -158.19265556 2.75390434 C-156.98510675 2.75574793 -155.77755795 2.75759151 -154.53341675 2.75949097 C-153.86200531 2.75778212 -153.19059387 2.75607327 -152.49883664 2.75431263 C-150.23853801 2.75100611 -147.9785332 2.76204026 -145.71826172 2.77294922 C-144.10222379 2.77351308 -142.48618534 2.77319726 -140.87014771 2.77206421 C-136.47366757 2.77148873 -132.07729584 2.78327458 -127.68084097 2.79721212 C-123.08973326 2.80968698 -118.49862326 2.81088741 -113.90750122 2.81326294 C-105.2093822 2.81948727 -96.51131326 2.83591095 -87.81321633 2.85596192 C-77.91251891 2.87829131 -68.01181914 2.88930689 -58.11110282 2.89935279 C-37.74070723 2.92027638 -17.37035676 2.95547083 3 3 C2.01 2.01 1.02 1.02 0 0 Z " fill="#CECECE" transform="translate(186,214)"/>
<path d="M0 0 C55.44 0 110.88 0 168 0 C168 0.33 168 0.66 168 1 C158.17656273 3.07371799 148.35951063 4.78264198 138.42089844 6.19198608 C135.44363193 6.61441004 132.46777475 7.04638937 129.49182129 7.47795105 C128.01979287 7.69141616 126.54770714 7.90448639 125.07556152 8.11714172 C119.37841934 8.94091614 113.68631919 9.79211426 108 10.6875 C107.25862793 10.80391846 106.51725586 10.92033691 105.75341797 11.0402832 C101.93397594 11.65216157 98.15433693 12.36540858 94.375 13.1875 C89.85981084 14.14936248 85.60791164 14.14864231 81 14 C81 13.67 81 13.34 81 13 C88.68453888 11.71149318 96.36937538 10.4247775 104.05458832 9.14029789 C107.62377771 8.54369931 111.19286479 7.94650255 114.76171875 7.34790039 C118.21092615 6.76938977 121.66040128 6.19250054 125.11006165 5.61669731 C127.05545271 5.29155701 129.00056872 4.96477233 130.94567871 4.63795471 C132.14631958 4.43782272 133.34696045 4.23769073 134.58398438 4.03149414 C136.15617737 3.76835167 136.15617737 3.76835167 137.76013184 3.49989319 C141.49576098 2.92350691 145.24935419 2.46883073 149 2 C75.245 1.505 75.245 1.505 0 1 C0 0.67 0 0.34 0 0 Z " fill="#C06464" transform="translate(105,21)"/>
<path d="M0 0 C2.4858972 2.4858972 2.26186511 3.26305087 2.30297852 6.69335938 C2.31962051 7.66776978 2.33626251 8.64218018 2.35340881 9.64611816 C2.36182297 10.70133667 2.37023712 11.75655518 2.37890625 12.84375 C2.39590073 13.92378296 2.4128952 15.00381592 2.43040466 16.11657715 C2.48367731 19.57765821 2.5238922 23.03872665 2.5625 26.5 C2.60638261 29.96121115 2.65306553 33.42232755 2.70530701 36.88342285 C2.73733323 39.04017054 2.76420153 41.1970019 2.78553772 43.35388184 C2.79902756 44.32829224 2.8125174 45.30270264 2.82641602 46.30664062 C2.83592789 47.16664673 2.84543976 48.02665283 2.85523987 48.91271973 C2.86983418 51.05988416 2.86983418 51.05988416 4 53 C59.11 53.33 114.22 53.66 171 54 C171 54.33 171 54.66 171 55 C149.14735582 55.07001915 127.29473009 55.12295334 105.44199657 55.15543652 C95.29584699 55.17091856 85.14976702 55.19203358 75.00366211 55.22631836 C66.16237493 55.25617983 57.32113816 55.27556527 48.47980195 55.28226548 C43.79650625 55.28618327 39.11335478 55.29541826 34.43010521 55.31719017 C30.02493809 55.337504 25.61997506 55.34384419 21.21476555 55.33932304 C19.59539431 55.34015054 17.97601647 55.34614656 16.35668564 55.35761642 C14.15043492 55.37248113 11.94496088 55.36897626 9.73869324 55.36076355 C8.50256885 55.36352893 7.26644445 55.36629431 5.99286175 55.36914349 C3 55 3 55 1.10137939 53.62338257 C-0.45863975 51.3239861 -0.36065596 49.65030353 -0.34057617 46.88598633 C-0.34034958 45.84513382 -0.34012299 44.80428131 -0.33988953 43.73188782 C-0.32440567 42.60993515 -0.30892181 41.48798248 -0.29296875 40.33203125 C-0.28872391 39.18208176 -0.28447906 38.03213226 -0.28010559 36.84733582 C-0.26329189 33.16882059 -0.22563377 29.49085008 -0.1875 25.8125 C-0.17245669 23.32097144 -0.15876767 20.82943432 -0.14648438 18.33789062 C-0.11337953 12.22507407 -0.06315305 6.11257595 0 0 Z " fill="#7E7E7E" transform="translate(22,219)"/>
<path d="M0 0 C1.0893097 -0.00512655 1.0893097 -0.00512655 2.20062566 -0.01035666 C4.63466031 -0.01694675 7.0675928 0.00505783 9.50152588 0.0269165 C11.24593581 0.02804474 12.99034764 0.02741158 14.73475647 0.02514648 C19.47213784 0.02399749 24.20911518 0.04753679 28.94640255 0.07544231 C33.89649858 0.10042507 38.84660358 0.1027955 43.79675293 0.10754395 C53.17131572 0.11998291 62.54569222 0.15281702 71.92017293 0.1929419 C82.5923459 0.23763093 93.2645277 0.25963944 103.93677092 0.27972364 C125.89107712 0.32154881 147.84521555 0.3919188 169.79937744 0.48101807 C169.79937744 0.81101807 169.79937744 1.14101807 169.79937744 1.48101807 C130.19937744 1.81101807 90.59937744 2.14101807 49.79937744 2.48101807 C49.46937744 3.14101807 49.13937744 3.80101807 48.79937744 4.48101807 C44.83937744 4.48101807 40.87937744 4.48101807 36.79937744 4.48101807 C37.12937744 3.82101807 37.45937744 3.16101807 37.79937744 2.48101807 C24.26937744 2.48101807 10.73937744 2.48101807 -3.20062256 2.48101807 C-1.45555641 4.22608422 0.98976887 3.71384591 3.36578369 3.79742432 C5.05284424 3.86026611 5.05284424 3.86026611 6.77398682 3.92437744 C8.54999268 3.98335205 8.54999268 3.98335205 10.36187744 4.04351807 C11.54974854 4.08670166 12.73761963 4.12988525 13.96148682 4.17437744 C16.90732528 4.28085353 19.85325174 4.38286648 22.79937744 4.48101807 C22.79937744 4.81101807 22.79937744 5.14101807 22.79937744 5.48101807 C18.445225 5.5102044 14.09109796 5.52787951 9.73687744 5.54351807 C8.50775635 5.55189697 7.27863525 5.56027588 6.01226807 5.56890869 C0.17151607 5.58465196 -5.45259273 5.56571315 -11.20062256 4.48101807 C-7.80679193 0.16759986 -5.36694235 -0.0152038 0 0 Z " fill="#C38D8D" transform="translate(191.20062255859375,212.51898193359375)"/>
<path d="M0 0 C2.97 0 5.94 0 9 0 C11.24397289 2.24397289 10.47976127 7.28827665 10.625 10.3125 C10.67003662 11.21645508 10.71507324 12.12041016 10.76147461 13.05175781 C11.05016748 19.7715195 10.88223347 26.32217126 10 33 C9.34 32.67 8.68 32.34 8 32 C7.3671875 29.63671875 7.3671875 29.63671875 6.875 26.6875 C6.70742187 25.72199219 6.53984375 24.75648437 6.3671875 23.76171875 C6 21 6 21 6 17 C4.02 17.33 2.04 17.66 0 18 C0 12.06 0 6.12 0 0 Z " fill="#0B0B0B" transform="translate(248,83)"/>
<path d="M0 0 C0 0.33 0 0.66 0 1 C-14.89996528 3.792569 -29.82585543 6.28450956 -44.8125 8.5625 C-59.06196344 10.7347992 -73.28283812 12.98308915 -87.44946289 15.64916992 C-94.35659531 16.94790165 -100.97944883 17.22406014 -108 17 C-104.05306069 14.53846796 -99.76354135 14.16140461 -95.25 13.5 C-94.49589844 13.38269531 -93.74179688 13.26539063 -92.96484375 13.14453125 C-87.80633227 12.35935683 -82.63789127 11.71346857 -77.45703125 11.09375 C-68.72917027 10.03225602 -60.09203755 8.53782503 -51.4375 7 C-41.74492688 5.28187237 -32.07147395 3.66779285 -22.30297852 2.44189453 C-19.01678139 2.00224513 -15.76317432 1.45991611 -12.5 0.875 C-8.24428387 0.13887613 -4.31101822 -0.19595537 0 0 Z " fill="#312424" transform="translate(132,44)"/>
<path d="M0 0 C2.91722548 -0.08103404 5.83219516 -0.14051081 8.75 -0.1875 C9.575 -0.21263672 10.4 -0.23777344 11.25 -0.26367188 C17.42297754 -0.33834499 17.42297754 -0.33834499 20.578125 1.51171875 C21.28195313 2.24841797 21.28195313 2.24841797 22 3 C21.608125 3.37125 21.21625 3.7425 20.8125 4.125 C18.78888777 6.10888175 18.78888777 6.10888175 16.8125 9.25 C14 12 14 12 10.0625 12.3125 C5.8244377 11.42789497 3.70121669 9.16026834 1.03125 5.88671875 C0 4 0 4 0 0 Z " fill="#131313" transform="translate(214,150)"/>
<path d="M0 0 C19.14 0 38.28 0 58 0 C58.495 0.99 58.495 0.99 59 2 C61.01669827 3.13350534 61.01669827 3.13350534 63 4 C38.6492584 4.16137828 14.33987476 3.70971639 -10 3 C-10 2.67 -10 2.34 -10 2 C-6.7 1.67 -3.4 1.34 0 1 C0 0.67 0 0.34 0 0 Z " fill="#717272" transform="translate(124,214)"/>
<path d="M0 0 C1.32 0 2.64 0 4 0 C4 0.66 4 1.32 4 2 C10.76664783 3.21964595 17.5097852 3.22337184 24.37109375 3.31640625 C25.64855972 3.33718735 26.9260257 3.35796844 28.24220276 3.37937927 C31.61718619 3.43349454 34.99218179 3.48380121 38.36724854 3.53222656 C41.81975308 3.58271279 45.27217598 3.6382564 48.72460938 3.69335938 C55.48300763 3.80020814 62.24146749 3.90203222 69 4 C65.3537922 6.29785498 62.27871034 6.24212309 58.02832031 6.22705078 C57.3352327 6.22734283 56.64214508 6.22763489 55.92805481 6.22793579 C53.64461608 6.22654608 51.3615065 6.21100206 49.078125 6.1953125 C47.49200621 6.19158109 45.90588511 6.18873472 44.31976318 6.18673706 C40.15059007 6.17911068 35.98155689 6.15947078 31.81243896 6.1373291 C27.55596815 6.11684921 23.29947466 6.10773076 19.04296875 6.09765625 C10.69524837 6.07622391 2.34764161 6.04210002 -6 6 C-6 5.34 -6 4.68 -6 4 C-1.545 3.505 -1.545 3.505 3 3 C2.01 2.01 1.02 1.02 0 0 Z " fill="#D9D9D9" transform="translate(39,209)"/>
<path d="M0 0 C15.51 0 31.02 0 47 0 C45.02 0.99 45.02 0.99 43 2 C46.96 2.33 50.92 2.66 55 3 C55 3.33 55 3.66 55 4 C41.33091697 4.1041973 27.66418132 4.10621338 14 3.6875 C12.93918213 3.66502197 11.87836426 3.64254395 10.78540039 3.61938477 C9.80434326 3.58385498 8.82328613 3.5483252 7.8125 3.51171875 C6.95269531 3.48553467 6.09289062 3.45935059 5.20703125 3.43237305 C3 3 3 3 0 0 Z " fill="#D7D8D8" transform="translate(186,214)"/>
<path d="M0 0 C3.63 0 7.26 0 11 0 C11 1.32 11 2.64 11 4 C12.32 4 13.64 4 15 4 C15 3.34 15 2.68 15 2 C16.8125 0.9375 16.8125 0.9375 19 0 C19.99 0.33 20.98 0.66 22 1 C21.236875 1.391875 20.47375 1.78375 19.6875 2.1875 C16.57468433 4.2868408 15.49454559 5.56254514 14 9 C13.65562496 11.37416205 13.43946323 13.71406701 13.30859375 16.109375 C13.20675781 16.73328125 13.10492188 17.3571875 13 18 C12.34 18.33 11.68 18.66 11 19 C10.67 16.03 10.34 13.06 10 10 C9.67 10.33 9.34 10.66 9 11 C7.53273202 7.18510326 8.56663581 4.70988378 10 1 C7.69 1 5.38 1 3 1 C2.75765625 1.969375 2.5153125 2.93875 2.265625 3.9375 C-0.15625 13.625 -2.578125 23.3125 -5 33 C-7.57313039 28.33061281 -6.68463994 25.49269458 -5.29296875 20.42578125 C-3.20067771 13.20067771 -3.20067771 13.20067771 -2 12 C-1.60430892 9.98688551 -1.25747809 7.96402792 -0.9375 5.9375 C-0.76089844 4.83277344 -0.58429688 3.72804688 -0.40234375 2.58984375 C-0.26957031 1.73519531 -0.13679688 0.88054687 0 0 Z " fill="#888888" transform="translate(287,123)"/>
<path d="M0 0 C0.7425 0.2475 1.485 0.495 2.25 0.75 C2.8275 1.1625 3.405 1.575 4 2 C4.33 3.98 4.66 5.96 5 8 C-1.27 8 -7.54 8 -14 8 C-12.9988469 2.9942345 -12.7516109 2.00128872 -9 -1 C-5.46366154 -2.59705608 -3.39902629 -1.61453749 0 0 Z " fill="#2A2A2A" transform="translate(228,133)"/>
<path d="M0 0 C0 1.65 0 3.3 0 5 C0.66 5 1.32 5 2 5 C1.34 6.32 0.68 7.64 0 9 C-9.03448276 9.62068966 -9.03448276 9.62068966 -12.625 7.3125 C-14.21961817 4.63064217 -14.34098943 3.06890491 -14 0 C-14.99 -0.33 -15.98 -0.66 -17 -1 C-11.54358766 -2.25917208 -5.136435 -2.5682175 0 0 Z " fill="#1A1A1A" transform="translate(321,152)"/>
<path d="M0 0 C11.55 0 23.1 0 35 0 C35 0.66 35 1.32 35 2 C33.78763672 2.03867188 33.78763672 2.03867188 32.55078125 2.078125 C31.48214844 2.13484375 30.41351563 2.1915625 29.3125 2.25 C27.72888672 2.31960937 27.72888672 2.31960937 26.11328125 2.390625 C22.2757021 3.14176973 20.61121719 4.086033 18 7 C17.18229622 10.48608069 17.18229622 10.48608069 17.1875 14.25 C17.13980469 15.51328125 17.09210938 16.7765625 17.04296875 18.078125 C17.02169922 19.52445312 17.02169922 19.52445312 17 21 C16.34 21 15.68 21 15 21 C14.98582031 19.95199219 14.97164063 18.90398437 14.95703125 17.82421875 C14.91012818 16.44526858 14.86188079 15.06636367 14.8125 13.6875 C14.80669922 12.99720703 14.80089844 12.30691406 14.79492188 11.59570312 C14.74609542 9.2983674 14.74609542 9.2983674 14 6 C10.84475214 3.23915812 8.31383119 2.6277389 4.1875 2.8125 C3.39730469 2.83957031 2.60710937 2.86664063 1.79296875 2.89453125 C0.90544922 2.94673828 0.90544922 2.94673828 0 3 C0 2.01 0 1.02 0 0 Z " fill="#F8F8F8" transform="translate(290,239)"/>
<path d="M0 0 C7.59 0 15.18 0 23 0 C23 5.94 23 11.88 23 18 C21.02 18 19.04 18 17 18 C17 15.03 17 12.06 17 9 C18.65 8.67 20.3 8.34 22 8 C22 6.02 22 4.04 22 2 C21.43490723 2.00523682 20.86981445 2.01047363 20.28759766 2.01586914 C17.7334097 2.03662422 15.17923947 2.0496554 12.625 2.0625 C11.73554687 2.07087891 10.84609375 2.07925781 9.9296875 2.08789062 C8.65351562 2.09272461 8.65351562 2.09272461 7.3515625 2.09765625 C6.17327881 2.10551147 6.17327881 2.10551147 4.97119141 2.11352539 C3 2 3 2 1 1 C1 9.25 1 17.5 1 26 C0.67 26 0.34 26 0 26 C0 17.42 0 8.84 0 0 Z " fill="#FEFEFE" transform="translate(89,239)"/>
<path d="M0 0 C0.33 0 0.66 0 1 0 C1.33 15.84 1.66 31.68 2 48 C8.93 48.495 8.93 48.495 16 49 C16 40.09 16 31.18 16 22 C16.33 22 16.66 22 17 22 C17 31.24 17 40.48 17 50 C11.06 50 5.12 50 -1 50 C-1.02310578 44.64716126 -1.04297371 39.29449949 -1.05493164 33.94165039 C-1.05992311 32.12523814 -1.06671864 30.30882982 -1.07543945 28.49243164 C-1.16597155 9.13453923 -1.16597155 9.13453923 0 0 Z " fill="#838383" transform="translate(259,66)"/>
<path d="M0 0 C0.66 0.33 1.32 0.66 2 1 C1.2884375 1.495 1.2884375 1.495 0.5625 2 C-1.85791615 5.09813267 -1.68198917 8.12026792 -2 12 C-3.65 12 -5.3 12 -7 12 C-7 16.62 -7 21.24 -7 26 C-5.35 26 -3.7 26 -2 26 C-1.505 41.345 -1.505 41.345 -1 57 C-3.44687039 54.55312961 -3.96036711 52.8880324 -4.11352539 49.45629883 C-4.10828857 48.46654053 -4.10305176 47.47678223 -4.09765625 46.45703125 C-4.09443359 45.38388672 -4.09121094 44.31074219 -4.08789062 43.20507812 C-4.07951172 42.08552734 -4.07113281 40.96597656 -4.0625 39.8125 C-4.05798828 38.68134766 -4.05347656 37.55019531 -4.04882812 36.38476562 C-4.03703498 33.58979073 -4.0205765 30.7949218 -4 28 C-5.65 28 -7.3 28 -9 28 C-9 22.39 -9 16.78 -9 11 C-7.35 11 -5.7 11 -4 11 C-4.0825 9.741875 -4.165 8.48375 -4.25 7.1875 C-4.265625 4.98046875 -4.265625 4.98046875 -4 3 C-2 1 -2 1 0 0 Z " fill="#B2B2B2" transform="translate(235,55)"/>
<path d="M0 0 C0.33 0.66 0.66 1.32 1 2 C20.14 2 39.28 2 59 2 C59 2.33 59 2.66 59 3 C51.66406777 3.98106636 44.48536771 4.13065833 37.08984375 4.09765625 C35.88179581 4.0962413 34.67374786 4.09482635 33.42909241 4.09336853 C29.59853563 4.08780395 25.76803889 4.07525803 21.9375 4.0625 C19.32877689 4.05748042 16.72005286 4.05291832 14.11132812 4.04882812 C7.74086519 4.03784613 1.37043689 4.02114354 -5 4 C-5 3.34 -5 2.68 -5 2 C-3.35 1.34 -1.7 0.68 0 0 Z " fill="#7F7F7F" transform="translate(32,213)"/>
<path d="M0 0 C2.48299187 2.48299187 2.26178122 3.2522377 2.30297852 6.67749023 C2.31962051 7.64867294 2.33626251 8.61985565 2.35340881 9.62046814 C2.36182297 10.67254959 2.37023712 11.72463104 2.37890625 12.80859375 C2.39590073 13.88625504 2.4128952 14.96391632 2.43040466 16.07423401 C2.48367611 19.52859594 2.52388421 22.98294552 2.5625 26.4375 C2.6064134 29.88842099 2.65313627 33.33924807 2.70530701 36.79005432 C2.73727649 38.94015997 2.76416269 41.09034825 2.78553772 43.24058533 C2.79902756 44.2149202 2.8125174 45.18925507 2.82641602 46.19311523 C2.83592789 47.05090073 2.84543976 47.90868622 2.85523987 48.79246521 C2.91789005 51.17612517 2.91789005 51.17612517 4 54 C2.68 53.34 1.36 52.68 0 52 C0 34.84 0 17.68 0 0 Z " fill="#989898" transform="translate(22,219)"/>
<path d="M0 0 C2.86011745 3.40009814 4.4948011 7.04512793 5.8828125 11.23828125 C4.8928125 11.23828125 3.9028125 11.23828125 2.8828125 11.23828125 C2.6146875 10.65820312 2.3465625 10.078125 2.0703125 9.48046875 C-2.00222583 1.3621851 -6.89554731 -2.80237175 -15.44140625 -5.8828125 C-22.72001666 -8.23388527 -29.76912749 -8.4277201 -37.3671875 -8.51171875 C-38.70967231 -8.5399645 -40.0521226 -8.56990346 -41.39453125 -8.6015625 C-44.63547485 -8.67151092 -47.8757304 -8.72457839 -51.1171875 -8.76171875 C-51.1171875 -9.09171875 -51.1171875 -9.42171875 -51.1171875 -9.76171875 C-47.11765968 -9.96034395 -43.11756572 -10.14359967 -39.1171875 -10.32421875 C-37.99183594 -10.38029297 -36.86648438 -10.43636719 -35.70703125 -10.49414062 C-22.16361384 -11.08815016 -10.22660008 -9.73176459 0 0 Z " fill="#414141" transform="translate(354.1171875,29.76171875)"/>
<path d="M0 0 C10 0 10 0 12 1 C11.34 2.32 10.68 3.64 10 5 C9.67 3.68 9.34 2.36 9 1 C6.36 1 3.72 1 1 1 C1 15.85 1 30.7 1 46 C3.97 46 6.94 46 10 46 C10 35.11 10 24.22 10 13 C10.33 13 10.66 13 11 13 C11 24.22 11 35.44 11 47 C7.37 47 3.74 47 0 47 C0 31.49 0 15.98 0 0 Z " fill="#3D3D3D" transform="translate(165,123)"/>
<path d="M0 0 C0.66 0.33 1.32 0.66 2 1 C1.99476318 1.85231201 1.98952637 2.70462402 1.98413086 3.58276367 C1.96703668 6.76033273 1.95452438 9.93787825 1.94506836 13.11547852 C1.94005546 14.48788222 1.93324342 15.86028062 1.92456055 17.23266602 C1.91236143 19.21107651 1.90727752 21.1895268 1.90234375 23.16796875 C1.89710693 24.35672607 1.89187012 25.5454834 1.88647461 26.77026367 C1.9884136 29.67037326 2.19275942 32.21462195 3 35 C3.66 35.33 4.32 35.66 5 36 C4.67 36.66 4.34 37.32 4 38 C6.43922361 37.91299202 8.87478414 37.80613998 11.3125 37.6875 C12.34793945 37.65366211 12.34793945 37.65366211 13.40429688 37.61914062 C17.49206734 37.4163003 17.49206734 37.4163003 20.98046875 35.45703125 C21.31691406 34.97621094 21.65335938 34.49539062 22 34 C21.67 35.65 21.34 37.3 21 39 C10.11 39 -0.78 39 -12 39 C-12 38.67 -12 38.34 -12 38 C-7.38 38 -2.76 38 2 38 C1.34 36.02 0.68 34.04 0 32 C-0.15839988 29.47548068 -0.21554772 26.94346536 -0.1953125 24.4140625 C-0.1924826 23.71227875 -0.18965271 23.010495 -0.18673706 22.28744507 C-0.17562512 20.06644972 -0.15053834 17.84587155 -0.125 15.625 C-0.11495854 14.11068295 -0.10583473 12.59635951 -0.09765625 11.08203125 C-0.07571554 7.38788742 -0.04124875 3.69398449 0 0 Z " fill="#ADADAD" transform="translate(132,77)"/>
<path d="M0 0 C0.66 1.32 1.32 2.64 2 4 C2.99 3.34 3.98 2.68 5 2 C4.34 3.98 3.68 5.96 3 8 C2.34 8 1.68 8 1 8 C1.33 9.65 1.66 11.3 2 13 C8.93 13.495 8.93 13.495 16 14 C16.33 13.34 16.66 12.68 17 12 C18.98 12 20.96 12 23 12 C22.67 13.32 22.34 14.64 22 16 C14.17052339 18.38865388 7.96494099 17.60037454 0 16 C-0.144375 15.05125 -0.28875 14.1025 -0.4375 13.125 C-0.82935399 10.1065506 -0.82935399 10.1065506 -2 8 C-1.66015625 6.0546875 -1.66015625 6.0546875 -1.0625 3.875 C-0.86785156 3.15054688 -0.67320312 2.42609375 -0.47265625 1.6796875 C-0.31667969 1.12539062 -0.16070312 0.57109375 0 0 Z " fill="#959595" transform="translate(289,68)"/>
<path d="M0 0 C2.64 0 5.28 0 8 0 C8.33 1.65 8.66 3.3 9 5 C8.01 5.495 8.01 5.495 7 6 C7 4.35 7 2.7 7 1 C5.68 1.33 4.36 1.66 3 2 C2.67 16.19 2.34 30.38 2 45 C1.34 45 0.68 45 0 45 C0 30.15 0 15.3 0 0 Z " fill="#A0A0A0" transform="translate(166,124)"/>
<path d="M0 0 C1.37478516 0.01740234 1.37478516 0.01740234 2.77734375 0.03515625 C3.69644531 0.04417969 4.61554688 0.05320312 5.5625 0.0625 C6.27277344 0.07410156 6.98304688 0.08570312 7.71484375 0.09765625 C7.38484375 0.75765625 7.05484375 1.41765625 6.71484375 2.09765625 C4.40484375 1.76765625 2.09484375 1.43765625 -0.28515625 1.09765625 C-2.6654545 11.75462607 -5.01828392 22.41587907 -7.28515625 33.09765625 C-7.94515625 33.09765625 -8.60515625 33.09765625 -9.28515625 33.09765625 C-9.50690558 31.64130254 -9.71214323 30.18242669 -9.91015625 28.72265625 C-10.02617187 27.91054687 -10.1421875 27.0984375 -10.26171875 26.26171875 C-10.26945312 25.54757813 -10.2771875 24.8334375 -10.28515625 24.09765625 C-9.62515625 23.43765625 -8.96515625 22.77765625 -8.28515625 22.09765625 C-5.91267583 16.03596878 -4.73874631 9.65388183 -3.71484375 3.25 C-3.1287263 0.31408441 -3.02095691 0.12910072 0 0 Z " fill="#7D7D7D" transform="translate(267.28515625,122.90234375)"/>
<path d="M0 0 C-0.59859155 6.34507042 -0.59859155 6.34507042 -2.1875 8.9375 C-4.83587932 10.48999822 -6.99619814 10.26120016 -10 10 C-11 9 -11 9 -11.0625 6.4375 C-11.041875 5.633125 -11.02125 4.82875 -11 4 C-4.5 0 -4.5 0 0 0 Z " fill="#9F9F9F" transform="translate(118,94)"/>
<path d="M0 0 C0.33 0 0.66 0 1 0 C5.36275707 21.4010063 5.36275707 21.4010063 7 32 C9.64 32 12.28 32 15 32 C15.33 30.02 15.66 28.04 16 26 C16.93423645 29.01031744 17.04449911 29.86650268 16 33 C12.7 33 9.4 33 6 33 C3.74784076 26.672505 2.12169202 20.39520591 0.74609375 13.8203125 C0.11602349 10.82362002 0.11602349 10.82362002 -2 8 C-1.43396226 1.43396226 -1.43396226 1.43396226 0 0 Z " fill="#818181" transform="translate(270,137)"/>
<path d="M0 0 C0.66 0 1.32 0 2 0 C5.43748779 5.46379638 5.3929187 10.01679593 5.25 16.25 C5.23904297 17.20986816 5.22808594 18.16973633 5.21679688 19.15869141 C5.08072962 28.1199035 4.61805036 37.06034306 4 46 C3.67 46 3.34 46 3 46 C2.98018066 44.96182129 2.96036133 43.92364258 2.93994141 42.85400391 C2.86318772 38.95859759 2.77458527 35.06353136 2.68261719 31.16845703 C2.64461286 29.49079154 2.60971328 27.81305246 2.578125 26.13525391 C2.40799202 17.20858918 2.18185506 8.70968157 0 0 Z " fill="#7F7F7F" transform="translate(84,70)"/>
<path d="M0 0 C6.93 0.33 13.86 0.66 21 1 C21 1.33 21 1.66 21 2 C15.06 2 9.12 2 3 2 C2.67 9.26 2.34 16.52 2 24 C1.34 24 0.68 24 0 24 C0 16.08 0 8.16 0 0 Z " fill="#DCDCDC" transform="translate(90,240)"/>
<path d="M0 0 C0 1.98 0 3.96 0 6 C1.98 6 3.96 6 6 6 C5.67 8.64 5.34 11.28 5 14 C2.69 13.34 0.38 12.68 -2 12 C-2.103125 11.071875 -2.20625 10.14375 -2.3125 9.1875 C-3.0070192 5.96745642 -3.47740939 4.97420135 -6 3 C-1.125 0 -1.125 0 0 0 Z " fill="#FAFAFA" transform="translate(71,247)"/>
<path d="M0 0 C-1.1446875 0.5878125 -1.1446875 0.5878125 -2.3125 1.1875 C-5.42531567 3.2868408 -6.50545441 4.56254514 -8 8 C-8.34437504 10.37416205 -8.56053677 12.71406701 -8.69140625 15.109375 C-8.79324219 15.73328125 -8.89507812 16.3571875 -9 17 C-9.66 17.33 -10.32 17.66 -11 18 C-11.33 15.03 -11.66 12.06 -12 9 C-12.33 9.33 -12.66 9.66 -13 10 C-14.0326802 7.21176345 -14.04509293 6.1322726 -13.0625 3.25 C-12.711875 2.5075 -12.36125 1.765 -12 1 C-11.67 1.66 -11.34 2.32 -11 3 C-9.68 3 -8.36 3 -7 3 C-7 2.34 -7 1.68 -7 1 C-3.375 -1.125 -3.375 -1.125 0 0 Z " fill="#3E3E3E" transform="translate(309,124)"/>
<path d="M0 0 C0 0.33 0 0.66 0 1 C-4.08088172 1.68226391 -8.16500543 2.3428487 -12.25 3 C-13.38953125 3.19078125 -14.5290625 3.3815625 -15.703125 3.578125 C-23.20362523 4.7713864 -30.40846489 5.24924329 -38 5 C-33.82071881 2.73736529 -29.84223124 2.09675314 -25.1875 1.375 C-23.933927 1.17716919 -23.933927 1.17716919 -22.6550293 0.9753418 C-15.05415897 -0.1420721 -7.67093809 -0.30958943 0 0 Z " fill="#331818" transform="translate(62,56)"/>
<path d="M0 0 C0.33 0 0.66 0 1 0 C1 4.95 1 9.9 1 15 C-0.98 15 -2.96 15 -5 15 C-5 12.03 -5 9.06 -5 6 C-3.35 5.67 -1.7 5.34 0 5 C0 3.35 0 1.7 0 0 Z " fill="#F6F6F6" transform="translate(111,242)"/>
<path d="M0 0 C-0.1875 3.3125 -0.1875 3.3125 -1 7 C-3.3125 9 -3.3125 9 -6 10 C-8.3125 9.6875 -8.3125 9.6875 -10 9 C-9.875 6.75 -9.875 6.75 -9 4 C-4.02702703 0 -4.02702703 0 0 0 Z " fill="#161616" transform="translate(315,94)"/>
<path d="M0 0 C19.14 0 38.28 0 58 0 C58 0.99 58 1.98 58 3 C57.34 2.67 56.68 2.34 56 2 C54.2134547 1.88055524 52.42263749 1.82277682 50.63232422 1.79467773 C48.95080765 1.7647599 48.95080765 1.7647599 47.23532104 1.73423767 C45.41340744 1.70916893 45.41340744 1.70916893 43.5546875 1.68359375 C42.31453888 1.66281265 41.07439026 1.64203156 39.79666138 1.62062073 C36.49888177 1.56622295 33.2010728 1.51599905 29.90319824 1.46777344 C26.53827347 1.41754766 23.1734395 1.36186723 19.80859375 1.30664062 C13.20580146 1.19938443 6.60294128 1.09762811 0 1 C0 0.67 0 0.34 0 0 Z " fill="#C4C4C4" transform="translate(299,217)"/>
<path d="M0 0 C2.33944736 0.28730055 4.6739143 0.61936779 7 1 C6.76953125 2.8828125 6.76953125 2.8828125 6 5 C4.07421875 6.1171875 4.07421875 6.1171875 1.6875 6.875 C0.90761719 7.14054687 0.12773438 7.40609375 -0.67578125 7.6796875 C-3.46538234 8.06413673 -4.65183959 7.47230195 -7 6 C-5.68 6 -4.36 6 -3 6 C-2.690625 5.195625 -2.38125 4.39125 -2.0625 3.5625 C-1 1 -1 1 0 0 Z " fill="#9E9E9E" transform="translate(110,78)"/>
<path d="M0 0 C0.25 2.8125 0.25 2.8125 0 6 C-1.6875 7.9375 -1.6875 7.9375 -4 9 C-6.75 8.6875 -6.75 8.6875 -9 8 C-9 6.35 -9 4.7 -9 3 C-7.68825887 2.4980125 -6.37558403 1.99846423 -5.0625 1.5 C-4.33160156 1.2215625 -3.60070312 0.943125 -2.84765625 0.65625 C-1 0 -1 0 0 0 Z " fill="#171717" transform="translate(208,95)"/>
<path d="M0 0 C2.14214236 2.14214236 2.4947885 3.11597426 3.2890625 5.95703125 C3.50820312 6.74013672 3.72734375 7.52324219 3.953125 8.33007812 C4.17484375 9.14927734 4.3965625 9.96847656 4.625 10.8125 C4.85445312 11.62009766 5.08390625 12.42769531 5.3203125 13.25976562 C6.41896328 17.25218409 7.32238798 20.81744021 7 25 C5 24 5 24 4.31396484 22.3293457 C4.11496582 21.61866943 3.9159668 20.90799316 3.7109375 20.17578125 C3.38222656 19.00305664 3.38222656 19.00305664 3.046875 17.80664062 C2.82515625 16.98357422 2.6034375 16.16050781 2.375 15.3125 C2.14554688 14.50876953 1.91609375 13.70503906 1.6796875 12.87695312 C0.47041333 8.47533912 -0.28296141 4.60929251 0 0 Z " fill="#AEAEAE" transform="translate(248,144)"/>
<path d="M0 0 C1.98 0 3.96 0 6 0 C6 2.64 6 5.28 6 8 C4.02 8 2.04 8 0 8 C0 5.36 0 2.72 0 0 Z " fill="#F7F7F7" transform="translate(71,239)"/>
<path d="M0 0 C3.63 0 7.26 0 11 0 C11 0.33 11 0.66 11 1 C8.36 1 5.72 1 3 1 C3.433125 2.42892578 3.433125 2.42892578 3.875 3.88671875 C4.431875 5.76810547 4.431875 5.76810547 5 7.6875 C5.37125 8.92886719 5.7425 10.17023438 6.125 11.44921875 C6.87703457 14.5010019 7.19034899 16.88898362 7 20 C4.26506673 16.82197699 3.30012122 14.06646688 2.375 10 C2.13523438 8.96875 1.89546875 7.9375 1.6484375 6.875 C1.43445313 5.92625 1.22046875 4.9775 1 4 C0.67 2.68 0.34 1.36 0 0 Z " fill="#9A9A9A" transform="translate(241,123)"/>
<path d="M0 0 C1.32 0 2.64 0 4 0 C4 3.63 4 7.26 4 11 C2.68 11 1.36 11 0 11 C0 7.37 0 3.74 0 0 Z " fill="#F9F9F9" transform="translate(320,247)"/>
<path d="M0 0 C3.5625 0.1875 3.5625 0.1875 5.5625 2.1875 C5.5625 3.1775 5.5625 4.1675 5.5625 5.1875 C2.5925 5.1875 -0.3775 5.1875 -3.4375 5.1875 C-3.7675 3.8675 -4.0975 2.5475 -4.4375 1.1875 C-3.4375 0.1875 -3.4375 0.1875 0 0 Z " fill="#EBEBEB" transform="translate(178.4375,228.8125)"/>
<path d="M0 0 C5.875 0.875 5.875 0.875 7 2 C8.85174706 2.15786308 10.7090911 2.25107356 12.56640625 2.31640625 C14.2534668 2.37924805 14.2534668 2.37924805 15.97460938 2.44335938 C17.75061523 2.50233398 17.75061523 2.50233398 19.5625 2.5625 C20.75037109 2.60568359 21.93824219 2.64886719 23.16210938 2.69335938 C26.10794784 2.79983546 29.0538743 2.90184841 32 3 C32 3.33 32 3.66 32 4 C27.64584756 4.02918634 23.29172052 4.04686145 18.9375 4.0625 C17.70837891 4.07087891 16.47925781 4.07925781 15.21289062 4.08789062 C9.37213863 4.10363389 3.74802983 4.08469508 -2 3 C-1.34 2.01 -0.68 1.02 0 0 Z " fill="#9E9F9F" transform="translate(182,214)"/>
<path d="M0 0 C1.0089572 3.13897794 0.81735982 4.85894568 0 8 C-0.22390317 10.75317974 -0.41393662 13.49305329 -0.5625 16.25 C-0.60568359 16.99507812 -0.64886719 17.74015625 -0.69335938 18.5078125 C-0.79896725 20.338349 -0.89994201 22.16915176 -1 24 C-3.24979588 20.39674126 -3.29896807 17.31989966 -3.3125 13.125 C-3.32925781 11.93132812 -3.34601563 10.73765625 -3.36328125 9.5078125 C-2.97040185 5.71420285 -1.89932304 3.2774598 0 0 Z " fill="#8E8E8E" transform="translate(207,132)"/>
<path d="M0 0 C1.32 0 2.64 0 4 0 C4 3.63 4 7.26 4 11 C2.68 11 1.36 11 0 11 C0 7.37 0 3.74 0 0 Z " fill="#EAEAEA" transform="translate(275,246)"/>
<path d="M0 0 C1.32 0 2.64 0 4 0 C4 3.63 4 7.26 4 11 C2.68 11 1.36 11 0 11 C0 7.37 0 3.74 0 0 Z " fill="#E1E1E1" transform="translate(152,246)"/>
<path d="M0 0 C0.125 2.375 0.125 2.375 0 5 C-2 7 -2 7 -5.125 7.125 C-6.548125 7.063125 -6.548125 7.063125 -8 7 C-8.33 6.01 -8.66 5.02 -9 4 C-2.25 0 -2.25 0 0 0 Z " fill="#0F0F0F" transform="translate(117,96)"/>
<path d="M0 0 C1.32 0 2.64 0 4 0 C4 3.3 4 6.6 4 10 C2.68 10 1.36 10 0 10 C0 6.7 0 3.4 0 0 Z " fill="#E9E9E9" transform="translate(290,247)"/>
<path d="M0 0 C-0.33 0.66 -0.66 1.32 -1 2 C-3.31 2 -5.62 2 -8 2 C-7.01 5.96 -6.02 9.92 -5 14 C-9.5 9.5 -9.5 9.5 -10.25 5.25 C-10.39953125 4.45078125 -10.5490625 3.6515625 -10.703125 2.828125 C-10.80109375 2.22484375 -10.8990625 1.6215625 -11 1 C-7.26562152 0.12132271 -3.83225427 -0.08912219 0 0 Z " fill="#ABABAB" transform="translate(307,152)"/>
<path d="M0 0 C0.33 0 0.66 0 1 0 C1.79725902 7.36040917 2.12886183 14.59760355 2 22 C1.34 22 0.68 22 0 22 C-0.85305168 19.09330538 -1.07289715 16.68951127 -0.87890625 13.671875 C-0.83056641 12.87265625 -0.78222656 12.0734375 -0.73242188 11.25 C-0.67634766 10.425 -0.62027344 9.6 -0.5625 8.75 C-0.51029297 7.90953125 -0.45808594 7.0690625 -0.40429688 6.203125 C-0.27504311 4.1350648 -0.13825726 2.0674778 0 0 Z " fill="#2D2727" transform="translate(359,151)"/>
<path d="M0 0 C0 1.98 0 3.96 0 6 C1.98 6 3.96 6 6 6 C6 6.33 6 6.66 6 7 C3.69 7 1.38 7 -1 7 C-1 8.65 -1 10.3 -1 12 C-1.33 12 -1.66 12 -2 12 C-2.103125 11.071875 -2.20625 10.14375 -2.3125 9.1875 C-3.0070192 5.96745642 -3.47740939 4.97420135 -6 3 C-1.125 0 -1.125 0 0 0 Z " fill="#CFCFCF" transform="translate(71,247)"/>
<path d="M0 0 C3.96 0 7.92 0 12 0 C12 1.98 12 3.96 12 6 C11.505 5.525625 11.01 5.05125 10.5 4.5625 C7.00531349 2.37832093 4.09033064 2.34086089 0 2 C0 1.34 0 0.68 0 0 Z " fill="#EFEFEF" transform="translate(267,239)"/>
<path d="M0 0 C0.66 1.32 1.32 2.64 2 4 C2.99 3.34 3.98 2.68 5 2 C4.34 3.98 3.68 5.96 3 8 C2.34 8 1.68 8 1 8 C1.33 8.99 1.66 9.98 2 11 C1.34 11.66 0.68 12.32 0 13 C-1.94522377 9.54182441 -2.08254219 7.43122397 -1.125 3.6875 C-0.75375 2.470625 -0.3825 1.25375 0 0 Z " fill="#5F5F5F" transform="translate(289,68)"/>
<path d="M0 0 C0.33 0 0.66 0 1 0 C1.19392201 5.52677733 0.7479503 9.75614911 -1 15 C-2.68252622 12.42672461 -3.0150238 11.17652967 -2.75 8.0625 C-2.05517575 5.22530099 -1.1774665 2.66892407 0 0 Z " fill="#BABABA" transform="translate(283,141)"/>
<path d="M0 0 C1.32 0.33 2.64 0.66 4 1 C3.608125 1.37125 3.21625 1.7425 2.8125 2.125 C0.78888777 4.10888175 0.78888777 4.10888175 -1.1875 7.25 C-4 10 -4 10 -6.1015625 10.1640625 C-8.3125 9.875 -8.3125 9.875 -12 9 C-12 8.67 -12 8.34 -12 8 C-11.38511719 7.92523438 -10.77023438 7.85046875 -10.13671875 7.7734375 C-7.62524452 7.36487231 -5.37891772 6.91107487 -3 6 C-0.85334283 3.04765553 -0.85334283 3.04765553 0 0 Z " fill="#747474" transform="translate(232,152)"/>
<path d="M0 0 C1.44977894 2.34112451 2.04314411 3.5796929 1.7578125 6.359375 C1.54898437 7.14828125 1.34015625 7.9371875 1.125 8.75 C0.92132813 9.54921875 0.71765625 10.3484375 0.5078125 11.171875 C0.34023438 11.77515625 0.17265625 12.3784375 0 13 C-0.66 13 -1.32 13 -2 13 C-3.45295405 4.80743982 -3.45295405 4.80743982 -1.5625 1.4375 C-1.046875 0.963125 -0.53125 0.48875 0 0 Z " fill="#AFAFAF" transform="translate(260,143)"/>
<path d="M0 0 C0.33 0 0.66 0 1 0 C1.36504603 1.58086048 1.71660506 3.16483907 2.0625 4.75 C2.25972656 5.63171875 2.45695312 6.5134375 2.66015625 7.421875 C2.99825872 9.98679028 2.81158635 11.57091639 2 14 C0.47551369 11.0173094 -0.93940067 8.181798 -2 5 C-1.0625 2.3125 -1.0625 2.3125 0 0 Z " fill="#B1B1B1" transform="translate(270,137)"/>
<path d="M0 0 C1.4540625 0.0309375 1.4540625 0.0309375 2.9375 0.0625 C2.9375 1.0525 2.9375 2.0425 2.9375 3.0625 C-0.15059695 4.82712683 -1.29562136 5.0625 -5.0625 5.0625 C-3.9375 0.08035714 -3.9375 0.08035714 0 0 Z " fill="#1A1A1A" transform="translate(204.0625,79.9375)"/>
<path d="M0 0 C0.99 0 1.98 0 3 0 C3 3.3 3 6.6 3 10 C2.01 10 1.02 10 0 10 C0 6.7 0 3.4 0 0 Z " fill="#FCFCFC" transform="translate(167,247)"/>
<path d="M0 0 C3.96 0 7.92 0 12 0 C12 1.65 12 3.3 12 5 C11.01 4.34 10.02 3.68 9 3 C6.9820211 2.62152955 6.9820211 2.62152955 4.875 2.5 C3.59625 2.335 2.3175 2.17 1 2 C0.67 1.34 0.34 0.68 0 0 Z " fill="#FBFBFB" transform="translate(143,239)"/>
<path d="M0 0 C1.24200301 2.48400602 0.98221651 3.82207636 0.6875 6.5625 C0.60886719 7.36816406 0.53023438 8.17382812 0.44921875 9.00390625 C0.30097656 9.66261719 0.15273438 10.32132813 0 11 C-0.99 11.495 -0.99 11.495 -2 12 C-2.24954005 10.56589632 -2.47392642 9.12739928 -2.6875 7.6875 C-2.81511719 6.88699219 -2.94273437 6.08648437 -3.07421875 5.26171875 C-3 3 -3 3 -1.51953125 1.20703125 C-1.01808594 0.80871094 -0.51664062 0.41039062 0 0 Z " fill="#9E9E9E" transform="translate(300,130)"/>
<path d="M0 0 C5.28 1.32 10.56 2.64 16 4 C16 4.33 16 4.66 16 5 C3.98010109 5.5683665 3.98010109 5.5683665 0 2 C0 1.34 0 0.68 0 0 Z " fill="#7E7E7E" transform="translate(291,112)"/>
<path d="M0 0 C-1 3 -1 3 -3.4375 4.6875 C-8.06498606 6.39236329 -12.12579634 6.26008597 -17 6 C-17 5.67 -17 5.34 -17 5 C-16.12988281 4.96132812 -16.12988281 4.96132812 -15.2421875 4.921875 C-9.6807118 4.51807148 -4.63759338 0 0 0 Z " fill="#A0A0A0" transform="translate(119,111)"/>
<path d="M0 0 C2.97 0.495 2.97 0.495 6 1 C6 2.65 6 4.3 6 6 C6.66 6 7.32 6 8 6 C7.34 7.32 6.68 8.64 6 10 C4.68 9.67 3.36 9.34 2 9 C2.66 8.67 3.32 8.34 4 8 C4.65772428 4.97065509 4.65772428 4.97065509 5 2 C3.35 1.67 1.7 1.34 0 1 C0 0.67 0 0.34 0 0 Z " fill="#808080" transform="translate(315,151)"/>
<path d="M0 0 C1.98 0 3.96 0 6 0 C5.34 1.32 4.68 2.64 4 4 C2.35 4 0.7 4 -1 4 C-0.67 2.68 -0.34 1.36 0 0 Z " fill="#111111" transform="translate(111,80)"/>
<path d="M0 0 C1.98 0 3.96 0 6 0 C5.67 1.32 5.34 2.64 5 4 C3.35 4 1.7 4 0 4 C0 2.68 0 1.36 0 0 Z " fill="#0F0F0F" transform="translate(306,80)"/>
<path d="M0 0 C2.4294516 3.6441774 2.16179575 5.71241272 2 10 C1.01 10.495 1.01 10.495 0 11 C-0.19406478 9.35492782 -0.38007935 7.70890406 -0.5625 6.0625 C-0.66691406 5.14597656 -0.77132812 4.22945313 -0.87890625 3.28515625 C-0.91886719 2.53105469 -0.95882812 1.77695313 -1 1 C-0.67 0.67 -0.34 0.34 0 0 Z " fill="#0A0A0A" transform="translate(224,72)"/>
<path d="M0 0 C1.9453125 -0.29296875 1.9453125 -0.29296875 4.125 -0.1875 C5.40375 -0.125625 6.6825 -0.06375 8 0 C8 0.66 8 1.32 8 2 C4.52674819 3.1577506 1.63932552 3.06866652 -2 3 C-1.34 2.01 -0.68 1.02 0 0 Z " fill="#B49999" transform="translate(106,212)"/>
<path d="M0 0 C-0.33 2.31 -0.66 4.62 -1 7 C-1.66 7 -2.32 7 -3 7 C-3 5.35 -3 3.7 -3 2 C-3.66 1.67 -4.32 1.34 -5 1 C-3 0 -3 0 0 0 Z " fill="#6E6E6E" transform="translate(315,94)"/>
<path d="M0 0 C0.99 0.33 1.98 0.66 3 1 C3.33 3.31 3.66 5.62 4 8 C2.68 7.34 1.36 6.68 0 6 C0 4.02 0 2.04 0 0 Z " fill="#B4B4B4" transform="translate(22,265)"/>
<path d="M0 0 C0.66 0 1.32 0 2 0 C3.25664978 2.90600261 4 4.79604584 4 8 C3.34 8 2.68 8 2 8 C-0.1519437 4.77208445 -0.20086443 3.71599191 0 0 Z " fill="#BEBEBE" transform="translate(288,104)"/>
<path d="M0 0 C0.33 0 0.66 0 1 0 C1.36923077 6.4 1.36923077 6.4 -0.5 9.4375 C-0.995 9.953125 -1.49 10.46875 -2 11 C-2.28571429 3.57142857 -2.28571429 3.57142857 0 0 Z " fill="#030303" transform="translate(90,97)"/>
<path d="M0 0 C-1.1446875 0.6496875 -1.1446875 0.6496875 -2.3125 1.3125 C-4.58093768 2.73686785 -6.2199723 4.03260097 -8 6 C-8.33 5.01 -8.66 4.02 -9 3 C-8.34 3 -7.68 3 -7 3 C-7 2.34 -7 1.68 -7 1 C-3.375 -1.125 -3.375 -1.125 0 0 Z " fill="#7E7E7E" transform="translate(309,124)"/>
<path d="M0 0 C1.98 0 3.96 0 6 0 C6.33 0.99 6.66 1.98 7 3 C6.34 3 5.68 3 5 3 C4.67 3.66 4.34 4.32 4 5 C4 4.01 4 3.02 4 2 C2.35 2 0.7 2 -1 2 C-0.67 1.34 -0.34 0.68 0 0 Z " fill="#878787" transform="translate(308,78)"/>
<path d="M0 0 C1.27351308 2.54702616 0.80191925 3.4282945 0.0625 6.125 C-0.13214844 6.84945312 -0.32679688 7.57390625 -0.52734375 8.3203125 C-0.68332031 8.87460938 -0.83929688 9.42890625 -1 10 C-3 7 -3 7 -2.75 3.875 C-2.37875 2.451875 -2.37875 2.451875 -2 1 C-1.34 0.67 -0.68 0.34 0 0 Z " fill="#909090" transform="translate(263,136)"/>
</svg>
