<svg width="1200" height="675" viewBox="0 0 1200 675" xmlns="http://www.w3.org/2000/svg">
  <!-- Background -->
  <rect width="1200" height="675" fill="#020617" />

  <!-- Inner card -->
  <rect x="40" y="40" width="1120" height="595" rx="28" fill="#020617" stroke="#1f2937" stroke-width="3" />

  <!-- Top label bar -->
  <rect x="40" y="40" width="320" height="60" rx="16" fill="#0f172a" />
  <text x="60" y="78" font-family="system-ui, -apple-system, BlinkMacSystemFont, 'Segoe UI', sans-serif"
        font-size="26" font-weight="600" fill="#e5e7eb" letter-spacing="0.06em">
    NBHARAT24
  </text>

  <!-- Accent line -->
  <rect x="40" y="120" width="140" height="4" rx="2" fill="#f97316" />

  <!-- Main icon circle -->
  <circle cx="240" cy="360" r="90" fill="#020617" stroke="#111827" stroke-width="4" />
  <path d="M210 320h80v14h-80zM210 346h80v14h-80zM210 372h54v14h-54z" fill="#f97316" />
  <rect x="216" y="304" width="68" height="90" rx="8" stroke="#f97316" stroke-width="3" fill="none" />

  <!-- Headline placeholder -->
  <rect x="380" y="230" width="600" height="26" rx="6" fill="#111827" />
  <rect x="380" y="272" width="520" height="22" rx="6" fill="#111827" />
  <rect x="380" y="308" width="460" height="20" rx="6" fill="#020617" />

  <!-- Meta line -->
  <rect x="380" y="356" width="180" height="18" rx="9" fill="#020617" />
  <circle cx="392" cy="365" r="4" fill="#f97316" />
  <text x="404" y="370" font-family="system-ui, -apple-system, BlinkMacSystemFont, 'Segoe UI', sans-serif"
        font-size="14" fill="#9ca3af">
    Thumbnail placeholder
  </text>

  <!-- Body lines -->
  <rect x="380" y="392" width="560" height="14" rx="7" fill="#020617" />
  <rect x="380" y="416" width="520" height="14" rx="7" fill="#020617" />
  <rect x="380" y="440" width="400" height="14" rx="7" fill="#020617" />

  <!-- Bottom tag chip -->
  <rect x="380" y="484" width="140" height="30" rx="15" fill="#0f172a" />
  <text x="400" y="504" font-family="system-ui, -apple-system, BlinkMacSystemFont, 'Segoe UI', sans-serif"
        font-size="14" fill="#e5e7eb">
    nbharat24.com
  </text>

  <!-- Hindi hint -->
  <text x="40" y="650" font-family="system-ui, -apple-system, BlinkMacSystemFont, 'Segoe UI', sans-serif"
        font-size="16" fill="#6b7280">
    खबर की जगह यह डमी थम्बनेल उपयोग हो रहा है (Placeholder)
  </text>
</svg>
